<svg width="250" height="100" viewBox="0 0 250 100" fill="none" xmlns="http://www.w3.org/2000/svg">
<g id="sequioia_70b028d972.svg">
<path id="Vector" d="M86.8103 37C83.9954 37 81.82 38.0247 80.1567 39.6881C77.7257 42.1191 77.7234 45.189 77.7234 49.5392C77.7234 53.7614 77.5977 56.8351 80.1567 59.3941C81.948 61.1854 83.9954 62.0783 86.8103 62.0783C87.578 62.0783 88.2161 61.9516 88.8558 61.8236H97.1709L94.7414 57.5995C95.8929 55.4244 95.8934 52.8658 95.8934 49.5392C95.8934 45.3169 95.8911 42.247 93.4601 39.6881C91.7968 37.8968 89.6251 37 86.8103 37ZM137.222 37C134.407 37 132.231 37.8968 130.568 39.6881C128.009 42.247 128.135 45.3169 128.135 49.5392C128.135 53.8894 128.137 56.9631 130.568 59.3941C132.231 61.0574 134.407 62.0783 137.222 62.0783C140.037 62.0783 142.208 61.1854 143.872 59.3941C146.303 56.8351 146.305 53.7614 146.305 49.5392C146.305 45.189 146.302 42.1191 143.872 39.6881C142.08 38.0247 140.037 37 137.222 37ZM39.4671 37.1293C34.0933 37.1293 30.8973 40.2007 30.8973 44.5509C30.8973 46.598 31.5365 48.2622 32.6881 49.4137C33.7116 50.4373 35.3744 51.2033 37.4216 51.4592L40.3644 51.8432C41.5159 52.0991 42.0274 52.2287 42.5392 52.7405C43.051 53.2523 43.3072 53.8904 43.3072 54.786C43.3072 56.8332 41.7725 57.8581 38.9576 57.8581C36.7825 57.8581 34.6074 57.3441 33.0721 55.8088L30 58.8808C32.431 61.3118 35.2472 62.0783 38.9576 62.0783C44.0755 62.0783 48.17 59.3908 48.17 54.6567C48.17 52.4816 47.5295 50.6932 46.25 49.4137C45.2264 48.3901 43.8195 47.7496 41.5164 47.4937L38.5736 47.1097C37.5501 46.8538 36.7814 46.5987 36.2696 46.0869C35.7578 45.5751 35.5016 44.9359 35.5016 44.2961C35.5016 42.6328 36.7827 41.2241 39.3416 41.2241C40.877 41.2241 42.7946 41.3502 44.3299 42.8856L47.402 39.9428C45.3548 37.8956 42.7937 37.1293 39.4671 37.1293ZM55.0783 37.2585V61.8236H71.3283V57.5995H59.9412V51.5885H69.663V47.2389H59.9412V41.4788H71.3283V37.2585H55.0783ZM103.056 37.2585V53.3792C103.056 58.6251 107.153 62.0783 112.143 62.0783C117.133 62.0783 121.097 58.6251 121.097 53.3792V37.2585H116.364V53.25C116.364 56.0648 114.702 57.7288 112.143 57.7288C109.584 57.7288 107.919 56.0648 107.919 53.25V37.2585H103.056ZM153.342 37.2585V61.8236H158.076V37.2585H153.342ZM173.045 37.2585L164.087 61.8236H169.079L170.615 57.4741H179.314L180.721 61.8236H185.713L176.755 37.2585H173.045ZM86.681 41.3534C87.9605 41.3534 89.1133 41.8632 89.7531 42.6308C90.6487 43.6544 90.9013 44.8051 90.9013 49.5392C90.9013 54.2732 90.6487 55.4277 89.7531 56.4513C89.1133 57.219 87.9605 57.7288 86.681 57.7288C85.4015 57.7288 84.2487 57.219 83.609 56.4513C82.7133 55.4277 82.4569 54.2732 82.4569 49.5392C82.4569 44.8051 82.7133 43.6544 83.609 42.6308C84.2487 41.8632 85.4015 41.3534 86.681 41.3534ZM137.222 41.3534C138.501 41.3534 139.65 41.8632 140.29 42.6308C141.186 43.6544 141.442 44.8051 141.442 49.5392C141.442 54.2732 141.186 55.4277 140.29 56.4513C139.65 57.219 138.501 57.7288 137.222 57.7288C135.942 57.7288 134.789 57.219 134.15 56.4513C133.254 55.4277 132.998 54.2732 132.998 49.5392C132.998 44.8051 133.254 43.6544 134.15 42.6308C134.789 41.8632 135.942 41.3534 137.222 41.3534ZM174.965 44.4216L178.037 53.3792H171.893L174.965 44.4216Z" fill="white"/>
<path id="Vector_2" d="M195.435 37.2585V59.6488L198.507 56.5768V37.2585H195.435ZM201.579 37.2585V53.5085L204.647 50.4365V37.2585H201.579ZM207.719 37.2585V47.3644L210.791 44.2961V37.2585H207.719ZM213.86 37.2585V43.3989H220V37.2585H213.86ZM212.966 46.4709L209.894 49.5392H220V46.4709H212.966ZM206.822 52.6112L203.754 55.6833H220V52.6112H206.822ZM200.682 58.7516L197.61 61.8236H220V58.7516H200.682Z" fill="white"/>
</g>
</svg>
