<svg width="200" height="100" viewBox="0 0 250 100" fill="none" xmlns="http://www.w3.org/2000/svg">
<g id="accel_1cb5297bba.svg">
<path id="Vector" d="M164.14 65.0615C163.179 63.9496 162.448 62.6591 161.987 61.2639L161.863 60.913L161.738 60.4841L161.66 60.219L161.535 59.7277L161.473 59.4392C161.41 59.1663 161.356 58.8777 161.309 58.5892C161.3 58.4844 161.284 58.3803 161.262 58.2773L161.2 57.7704C161.212 57.659 161.212 57.5466 161.2 57.4351L161.161 57.0062L182.995 51.7427C182.867 50.6122 182.531 49.5152 182.005 48.5065C181.195 46.743 179.878 45.2607 178.223 44.2489C176.389 43.089 174.328 42.334 172.179 42.0343L171.813 41.9797C170.517 41.8365 169.21 41.8365 167.914 41.9797C164.476 42.3515 161.248 43.8166 158.704 46.1594C156.193 48.4445 154.514 51.5009 153.932 54.8462V54.9788C153.893 55.1971 153.862 55.4077 153.839 55.6494C153.815 55.8911 153.839 55.9223 153.792 56.0783C153.802 56.1976 153.802 56.3176 153.792 56.437C153.807 56.6447 153.807 56.8532 153.792 57.0608V58.0668C153.843 59.8725 154.223 61.6537 154.915 63.3225C156.148 66.1828 158.185 68.6231 160.78 70.3466C163.374 72.0702 166.413 73.0028 169.528 73.0309C172.162 73.0841 174.77 72.501 177.131 71.331C179.466 70.1779 181.48 68.4663 182.995 66.3481L182.621 65.4046C181.077 68.3522 170.425 72.0172 164.14 65.0615ZM174.074 52.1092L161.091 55.2283C161.091 54.8384 161.091 54.4485 161.145 54.082V53.9651C161.139 53.8404 161.139 53.7155 161.145 53.5908L161.208 53.0839C161.325 52.2726 161.508 51.4721 161.753 50.69C162.194 49.2387 162.868 47.8691 163.75 46.635C164.554 45.4978 165.587 44.5415 166.783 43.8278C167.928 43.1434 169.239 42.7873 170.573 42.7985C172.434 42.7985 173.796 43.3183 174.659 44.3581C174.973 44.7204 175.236 45.1245 175.439 45.5589C176.304 47.7657 176.242 51.4385 174.074 52.1092Z" fill="white"/>
<path id="Vector_2" d="M125.174 65.3811C123.614 68.3599 112.978 72.0171 106.693 65.0692C105.662 63.8681 104.892 62.466 104.431 60.9519C103.889 59.2348 103.626 57.4419 103.651 55.6415C103.64 53.9605 103.887 52.2878 104.384 50.6821C104.825 49.2308 105.499 47.8612 106.381 46.6271C107.171 45.4991 108.185 44.5461 109.359 43.8277C110.504 43.1437 111.816 42.7876 113.149 42.7984C115.01 42.7984 116.372 43.3182 117.235 44.358C118.125 45.4822 118.584 46.8868 118.53 48.3193C118.549 49.0632 118.438 49.8047 118.202 50.5105L124.83 48.9509C122.421 42.7126 114.436 41.847 112.962 41.847C100.314 41.6443 93.3738 53.5439 97.4599 63.2367C98.6944 66.0987 100.733 68.5409 103.328 70.2669C105.924 71.993 108.964 72.9288 112.081 72.9606C114.715 73.0139 117.323 72.4307 119.684 71.2607C122.019 70.1079 124.033 68.3963 125.548 66.2778L125.174 65.3811Z" fill="white"/>
<path id="Vector_3" d="M153.932 65.3811C152.373 68.3599 141.736 72.0171 135.451 65.0692C134.431 63.8761 133.669 62.4849 133.213 60.9831C132.671 59.266 132.408 57.4731 132.433 55.6727C132.422 53.9917 132.669 52.319 133.166 50.7133C133.604 49.2625 134.276 47.8929 135.155 46.6584C135.943 45.5203 136.957 44.5568 138.134 43.8277C139.279 43.1433 140.59 42.7872 141.923 42.7984C143.779 42.7984 145.141 43.3183 146.01 44.358C146.907 45.479 147.375 46.8839 147.327 48.3193C147.347 49.0639 147.234 49.806 146.992 50.5105L153.581 48.9509C151.187 42.7126 143.202 41.8549 141.744 41.8549C129.096 41.6521 122.156 53.5517 126.242 63.2445C127.468 66.1137 129.503 68.5644 132.097 70.2978C134.692 72.0312 137.735 72.9727 140.855 73.0074C143.495 73.0632 146.108 72.48 148.474 71.3075C150.809 70.1544 152.823 68.4429 154.338 66.3246L153.932 65.3811Z" fill="white"/>
<path id="Vector_4" d="M192.555 66.7693V27L183.198 29.277H183.135V30.1581C183.463 30.1581 186.293 30.9379 186.293 32.8874V66.6289C186.293 70.8865 183.283 71.5026 181.248 71.6351V72.3447L197.6 72.3448V71.6351C195.573 71.5026 192.625 70.8787 192.555 66.7693Z" fill="white"/>
<path id="Vector_5" d="M79.4467 27L70.1828 29.2692H70.1126V29.9554C70.4402 29.9554 73.1928 30.9301 72.452 32.6847C68.9352 40.467 57.5269 66.4417 56.9264 67.6114C54.9536 71.5104 52.1541 71.5104 51 71.6351V72.3447H65.5041V71.6195C65.5041 71.6195 59.9988 71.6819 59.9988 68.8045C59.9988 67.0578 62.845 60.1878 63.617 58.3085L82.5113 53.7C82.5581 53.817 87.6423 66.1298 87.6423 68.7265C87.6423 71.5338 83.1273 71.6195 82.9636 71.6195V72.3292H101.889V71.6195C100.546 71.6424 99.225 71.2703 98.0911 70.5495C96.9572 69.8286 96.0599 68.7908 95.5104 67.5646C94.9411 66.4417 79.4467 27 79.4467 27ZM81.8563 52.1092L64.4124 56.3669C64.506 56.1407 73.996 33.9011 74.2611 33.3397C74.6588 34.2676 81.8485 52.1092 81.8485 52.1092H81.8563Z" fill="white"/>
</g>
</svg>
