<svg width="250" height="100" viewBox="0 0 250 100" fill="none" xmlns="http://www.w3.org/2000/svg">
<g id="y_combinator_0dd7d14b20.svg">
<path id="Vector" d="M12 27H57.12V72.4576H12V27Z" fill="white"/>
<path id="Vector_2" d="M25.3897 38.3271C25.5773 38.2896 25.8023 38.2146 25.9898 38.2146C26.965 38.1771 27.9402 38.2521 28.9153 38.2896C29.0654 38.2521 29.1404 38.4021 29.1779 38.5146C30.6406 41.5526 32.1034 44.6281 33.6036 47.6661C33.9412 48.3037 34.2037 48.9414 34.5788 49.5415C34.8788 49.0539 35.1414 48.5288 35.4039 48.0037C37.0917 44.7407 38.667 41.4776 40.3172 38.2146C41.4049 38.2521 42.4926 38.1396 43.5803 38.3271C43.3927 38.9647 43.0177 39.4898 42.7551 40.0899C40.5798 44.2531 38.3669 48.4163 36.1915 52.5795C36.1165 52.7295 36.079 52.917 36.079 53.1045C36.079 56.0675 36.079 59.068 36.079 62.031C35.0288 62.031 33.9787 62.031 32.9285 62.031C32.9285 59.1431 32.9285 56.2176 32.9285 53.3296C32.9285 53.0295 32.966 52.692 32.7785 52.3919C30.7531 48.6038 28.7653 44.8157 26.74 40.99C26.2899 40.0899 25.8023 39.2272 25.3897 38.3271Z" fill="#292526"/>
<path id="Vector_3" d="M138.359 36.0015C138.771 36.039 138.846 36.5265 138.884 36.8266C138.996 38.3644 139.034 39.8646 139.034 41.4024C139.109 42.8651 139.109 44.2903 139.109 45.7531C139.934 45.1155 140.721 44.4404 141.697 44.0653C143.234 43.3902 145.11 43.3902 146.61 44.1778C148.223 45.003 149.348 46.5782 149.91 48.266C150.436 49.8788 150.586 51.6041 150.473 53.2918C150.323 55.2797 149.798 57.2675 148.635 58.8803C147.96 59.8179 147.06 60.6431 145.935 61.0556C144.134 61.6932 142.147 61.4682 140.534 60.4555C140.046 60.1555 139.596 59.7054 139.146 59.3303C138.959 59.9304 138.809 60.493 138.621 61.0931C137.758 61.0931 136.933 61.1682 136.071 61.0181C136.408 59.6679 136.408 58.2427 136.446 56.8549C136.521 51.9416 136.446 47.0283 136.408 42.1525C136.296 40.2397 136.446 38.3268 136.108 36.4515C136.896 36.2265 137.608 36.0015 138.359 36.0015ZM144.66 46.1282C143.909 45.9781 143.159 45.9781 142.409 46.0531C141.059 46.2407 139.971 47.1783 139.109 48.1535C139.071 48.491 139.109 48.7911 139.071 49.1287V56.93C139.034 57.1925 139.259 57.38 139.446 57.5301C140.759 58.8053 142.709 59.4054 144.51 58.9553C145.372 58.7302 146.122 58.1677 146.535 57.38C147.173 56.2923 147.398 55.0171 147.51 53.7794C147.585 52.8418 147.698 51.8666 147.585 50.9289C147.548 49.8413 147.323 48.6786 146.76 47.7409C146.31 46.9533 145.56 46.3157 144.66 46.1282ZM155.836 36.6766C156.362 36.489 156.962 36.5266 157.487 36.7516C157.974 37.0516 158.312 37.5017 158.537 38.0268C158.874 39.152 157.974 40.4272 156.812 40.5772C155.911 40.6897 154.936 40.1647 154.674 39.2645C154.299 38.2893 154.861 37.0891 155.836 36.6766ZM75.8356 38.7394C77.1108 37.8768 78.6111 37.2017 80.1863 37.2017C81.7991 37.1642 83.4494 37.2767 84.9121 37.9893C85.5122 38.2518 86.1123 38.5519 86.6374 39.002C86.2623 39.6396 85.7748 40.2022 85.3247 40.7648C84.7246 40.4272 84.162 40.0521 83.5244 39.8271C81.9491 39.2645 80.1488 39.152 78.5736 39.7896C77.2608 40.3147 76.1732 41.3274 75.498 42.5651C75.048 43.4277 74.6354 44.3654 74.4479 45.3405C74.2978 46.2782 74.2228 47.2533 74.1853 48.2285C74.1478 49.5037 74.0728 50.8164 74.1478 52.0916C74.3729 53.8919 74.973 55.6922 76.2107 57.0425C77.2608 58.2802 78.8361 58.9928 80.4489 59.1428C81.274 59.1803 82.1367 59.1803 82.9618 58.9928C83.9745 58.7678 84.8371 58.2427 85.7748 57.8301C86.2999 58.3552 86.7874 58.9553 87.2375 59.5929C86.5624 59.968 85.8498 60.343 85.0997 60.6431C83.1493 61.4307 80.9365 61.4682 78.8736 61.2432C77.3734 60.9431 75.9856 60.1555 74.8229 59.1803C73.4727 58.0176 72.4975 56.4799 71.935 54.7921C71.5224 53.6669 71.3349 52.4667 71.2223 51.304C71.1848 50.4039 71.0723 49.5412 71.1848 48.6411C71.2223 46.9533 71.4849 45.303 72.16 43.7277C72.9101 41.7774 74.1103 39.9396 75.8356 38.7394Z" fill="white"/>
<path id="Vector_4" d="M199.869 39.6393C200.731 39.3768 201.632 39.1517 202.532 39.0017C202.382 40.652 202.269 42.3023 202.232 43.99C203.619 44.0275 205.045 44.0275 206.432 44.0651C206.207 44.7027 205.945 45.3403 205.645 45.9404C204.445 45.9404 203.282 45.9404 202.082 45.9404C202.082 47.4781 202.082 49.0159 202.082 50.5536C202.082 51.7538 202.157 52.9915 202.119 54.1917C202.157 55.5795 202.082 56.9672 202.232 58.3174C202.269 58.88 202.794 59.2926 203.282 59.4426C204.145 59.6301 205.045 59.5551 205.87 59.3676C206.095 59.8552 206.207 60.4178 206.17 60.9429C205.42 61.3554 204.52 61.4304 203.657 61.5055C202.457 61.543 201.107 61.3554 200.244 60.4178C199.531 59.7427 199.606 58.6925 199.494 57.7923C199.419 55.842 199.456 53.8542 199.419 51.9039C199.419 49.916 199.419 47.8907 199.419 45.9029C198.669 45.9029 197.918 45.9029 197.168 45.9029C197.131 45.2653 197.131 44.5901 197.168 43.9525C197.918 43.9525 198.631 43.9525 199.381 43.9525C199.644 42.5273 199.644 41.0645 199.869 39.6393ZM97.3267 43.5775C98.0393 43.615 98.7519 43.5775 99.4271 43.8025C101.002 44.3276 102.315 45.4153 103.14 46.8405C103.853 48.0782 104.34 49.4659 104.378 50.8912C104.453 52.804 104.528 54.7918 103.928 56.6296C103.365 58.3549 102.165 59.8927 100.515 60.7553C98.902 61.5805 96.9516 61.768 95.2264 61.2804C93.6511 60.8679 92.3009 59.8177 91.4007 58.4675C90.3881 57.0047 90.0505 55.2419 90.013 53.4791C89.9755 51.7913 89.938 50.066 90.5006 48.4533C91.0257 46.878 92.0383 45.4153 93.4636 44.5151C94.1012 44.1026 94.8138 43.765 95.5639 43.615C96.164 43.54 96.7641 43.5775 97.3267 43.5775ZM95.9765 45.7528C95.0763 45.9779 94.2137 46.503 93.7261 47.2906C93.0135 48.4533 92.901 49.841 92.826 51.1537C92.7509 52.1289 92.826 53.1041 92.901 54.0792C93.051 55.2419 93.276 56.4796 93.8386 57.5298C94.4387 58.655 95.7139 59.2176 96.9516 59.2926C98.1143 59.3676 99.3896 59.0675 100.215 58.1674C100.89 57.4173 101.265 56.4796 101.415 55.467C101.602 54.2292 101.565 52.9915 101.527 51.7538C101.49 50.4786 101.377 49.1284 100.852 47.9282C100.552 47.1781 99.9897 46.5405 99.277 46.1654C98.3019 45.5653 97.0642 45.4903 95.9765 45.7528ZM109.066 44.1401C109.854 43.8775 110.641 43.69 111.467 43.54C111.804 44.2901 111.992 45.1152 112.067 45.9404C112.629 45.6403 113.042 45.1902 113.567 44.8527C114.73 43.99 116.155 43.4649 117.618 43.54C117.955 43.5775 118.255 43.6525 118.555 43.8025C119.043 44.065 119.568 44.3276 119.98 44.7027C120.393 45.1152 120.693 45.6403 120.993 46.1654C121.668 45.8653 122.156 45.3403 122.756 44.9277C123.769 44.2151 124.931 43.6525 126.207 43.54C127.369 43.4274 128.532 43.8025 129.395 44.5901C129.77 44.9652 130.182 45.3403 130.37 45.8278C130.557 46.3154 130.632 46.8405 130.67 47.3656C130.857 50.1036 130.745 52.879 130.857 55.617C130.857 57.4548 130.857 59.2551 130.857 61.0929C129.957 61.0929 129.057 61.1304 128.119 61.0929C128.119 58.3549 128.119 55.617 128.119 52.879C128.119 51.1162 128.157 49.3534 128.007 47.5906C127.932 47.028 127.632 46.503 127.182 46.1654C126.657 45.8278 125.981 45.8654 125.381 45.9029C124.294 46.0154 123.431 46.6905 122.606 47.3281C122.231 47.6656 121.818 47.9657 121.443 48.3033C121.331 48.3783 121.368 48.5658 121.368 48.6783C121.368 52.804 121.368 56.9297 121.368 61.0554C120.468 61.0554 119.568 61.0554 118.668 61.0554V51.4163C118.668 50.6286 118.668 49.841 118.63 49.0909C118.593 48.3033 118.668 47.4406 118.293 46.728C117.73 45.9404 116.642 45.7903 115.78 46.0154C114.43 46.3529 113.229 47.1781 112.217 48.1157C112.067 48.2282 112.067 48.4158 112.067 48.6033C112.067 52.7665 112.067 56.9297 112.067 61.0929C111.279 61.1304 110.491 61.1304 109.704 61.0929C109.629 56.8547 109.666 52.579 109.554 48.3033C109.516 47.3281 109.516 46.3529 109.404 45.4153C109.291 44.9652 109.141 44.5526 109.066 44.1401ZM155.199 43.99C156.062 43.8775 156.924 43.7275 157.787 43.54C157.899 45.9404 157.862 48.3408 157.862 50.7412C157.862 54.1917 157.862 57.6423 157.862 61.0929C156.962 61.1304 156.062 61.1304 155.161 61.0929C155.124 56.1421 155.161 51.2287 155.161 46.2779C155.199 45.5278 155.161 44.7402 155.199 43.99ZM189.967 43.6525C191.805 43.99 193.38 45.6778 193.418 47.5906C193.53 50.4411 193.38 53.2916 193.418 56.1421V57.0047C193.418 57.5673 193.455 58.1299 193.605 58.6925C193.718 59.2551 194.243 59.5551 194.655 59.8927C194.28 60.4178 193.943 61.0179 193.455 61.468C193.155 61.7305 192.78 61.4304 192.555 61.2804C191.917 60.7928 191.467 60.0802 191.092 59.3676C190.492 59.7052 190.08 60.1927 189.48 60.5303C188.504 61.1679 187.342 61.543 186.142 61.5055C185.091 61.543 184.004 61.3554 183.066 60.8679C181.528 60.0427 180.666 58.2424 180.703 56.5546C180.703 54.9044 181.528 53.2916 182.841 52.3164C184.416 51.1162 186.442 50.7412 188.354 50.5911C189.217 50.5161 190.117 50.5161 191.017 50.4786C191.055 49.616 190.98 48.7533 190.867 47.8907C190.755 47.1781 190.417 46.4279 189.742 46.0529C188.954 45.6403 188.017 45.6028 187.117 45.7528C185.466 45.9404 183.929 46.653 182.578 47.6281C182.203 47.1031 181.828 46.6155 181.528 46.0529C181.378 45.7903 181.603 45.5653 181.828 45.4528C183.629 44.4401 185.616 43.5775 187.717 43.615H188.617C189.067 43.5775 189.517 43.5775 189.967 43.6525ZM188.842 52.2414C188.017 52.3164 187.154 52.3539 186.367 52.579C185.391 52.8415 184.491 53.4791 183.966 54.3418C183.666 54.8293 183.666 55.4294 183.629 55.992C183.629 56.5921 183.554 57.2672 183.779 57.8298C184.004 58.4299 184.416 58.9925 185.016 59.2176C185.691 59.5176 186.479 59.5551 187.229 59.4801C188.129 59.3676 188.917 58.88 189.592 58.3549C190.155 57.8673 190.717 57.2672 190.755 56.4796C190.867 55.0919 190.83 53.7042 190.867 52.3164C190.192 52.3164 189.517 52.1664 188.842 52.2414ZM218.247 43.69C219.785 44.0651 221.172 45.0027 222.073 46.2779C222.823 47.3281 223.31 48.5283 223.535 49.8035C223.723 51.0037 223.798 52.2414 223.723 53.4416C223.685 55.4294 223.085 57.4173 221.885 58.9925C220.91 60.2678 219.41 61.0179 217.872 61.3179C215.997 61.6555 213.971 61.3179 212.396 60.1927C211.008 59.2176 210.146 57.6423 209.658 56.0671C209.395 55.2419 209.358 54.4168 209.283 53.5541C209.245 52.1289 209.245 50.7037 209.508 49.3159C209.883 47.7407 210.671 46.2029 211.871 45.0777C212.771 44.2526 213.896 43.7275 215.096 43.5775C216.147 43.4649 217.197 43.5025 218.247 43.69ZM215.284 45.7153C214.009 45.8654 212.996 46.878 212.583 48.0407C212.058 49.2784 212.133 50.6286 212.096 51.9414C212.133 53.1791 212.133 54.4168 212.358 55.6545C212.508 56.4796 212.771 57.3048 213.334 57.9424C213.859 58.58 214.646 58.9925 215.434 59.1426C215.734 59.2176 216.072 59.2551 216.372 59.2551H216.672L216.972 59.2176C217.609 59.1426 218.209 58.955 218.772 58.655C219.447 58.2799 219.935 57.5673 220.197 56.8547C220.535 55.992 220.572 55.0544 220.647 54.1542C220.685 53.0666 220.722 51.9789 220.647 50.8912C220.572 49.766 220.422 48.6033 219.897 47.5906C219.41 46.8405 218.734 46.2029 217.909 45.8278C217.122 45.6028 216.184 45.6028 215.284 45.7153ZM228.336 44.1776C229.161 43.9525 229.949 43.69 230.774 43.5025C231.224 44.3276 231.299 45.3028 231.337 46.2029C231.749 45.9029 232.087 45.4903 232.462 45.1152C233.624 43.9525 235.35 43.2399 237 43.54V43.765C236.625 44.5526 236.4 45.4153 236.062 46.2404C236.025 46.3904 235.8 46.3529 235.687 46.3529C234.975 46.3529 234.187 46.3529 233.549 46.728C232.912 47.1031 232.349 47.5906 231.899 48.1907C231.449 48.7533 231.524 49.541 231.524 50.2161C231.487 51.1912 231.449 52.1664 231.487 53.1416C231.487 55.767 231.487 58.4299 231.487 61.0554C230.586 61.0929 229.686 61.0929 228.786 61.0554C228.786 58.1299 228.786 55.1669 228.786 52.2414C228.786 50.2536 228.786 48.2282 228.711 46.2404C228.636 45.5653 228.411 44.8902 228.336 44.1776ZM163.188 44.2151C163.975 43.9525 164.8 43.6525 165.626 43.6525C165.926 44.4401 166.113 45.2653 166.226 46.0904C166.938 45.6403 167.538 45.0402 168.289 44.6276C169.714 43.8025 171.439 43.2024 173.052 43.8025C173.989 44.1401 174.927 44.6652 175.49 45.5278C175.94 46.1279 176.052 46.953 176.127 47.7032C176.277 50.3661 176.24 53.029 176.24 55.7295C176.24 57.5298 176.277 59.2926 176.277 61.0929C175.377 61.1304 174.477 61.1304 173.577 61.0929C173.577 58.1674 173.502 55.2044 173.502 52.2789C173.464 50.6286 173.539 49.0159 173.352 47.3656C173.089 46.578 172.339 45.9404 171.514 45.9029C170.914 45.8654 170.276 45.8654 169.676 46.0904C168.401 46.578 167.238 47.3656 166.188 48.2282C166.151 52.504 166.188 56.8172 166.188 61.0929C165.401 61.0929 164.613 61.1304 163.825 61.0929C163.825 58.655 163.75 56.2171 163.75 53.7792C163.713 51.2663 163.75 48.7908 163.6 46.2779C163.563 45.5653 163.338 44.8902 163.188 44.2151Z" fill="white"/>
</g>
</svg>
