<svg xmlns="http://www.w3.org/2000/svg" width="27" height="25" viewBox="0 0 27 25" fill="none">
  <path fill-rule="evenodd" clip-rule="evenodd" d="M13.0629 15.628C12.6521 15.628 12.2453 15.5471 11.8658 15.3899C11.4863 15.2327 11.1414 15.0023 10.851 14.7118C10.5605 14.4213 10.3301 14.0765 10.1729 13.697C10.0157 13.3175 9.93477 12.9107 9.93477 12.4999C9.93477 12.0891 10.0157 11.6823 10.1729 11.3028C10.3301 10.9233 10.5605 10.5785 10.851 10.288C11.1414 9.99751 11.4863 9.76709 11.8658 9.60989C12.2453 9.45269 12.6521 9.37178 13.0629 9.37178C13.8925 9.37178 14.6882 9.70135 15.2748 10.288C15.8614 10.8746 16.191 11.6703 16.191 12.4999C16.191 13.3295 15.8614 14.1252 15.2748 14.7118C14.6882 15.2985 13.8925 15.628 13.0629 15.628ZM13.0629 7.68115C11.7849 7.68115 10.5592 8.18884 9.65552 9.09253C8.75183 9.99622 8.24414 11.2219 8.24414 12.4999C8.24414 13.7779 8.75183 15.0036 9.65552 15.9073C10.5592 16.811 11.7849 17.3187 13.0629 17.3187C14.3409 17.3187 15.5666 16.811 16.4703 15.9073C17.374 15.0036 17.8816 13.7779 17.8816 12.4999C17.8816 11.2219 17.374 9.99622 16.4703 9.09253C15.5666 8.18884 14.3409 7.68115 13.0629 7.68115ZM19.2835 7.59365C19.2835 7.89575 19.1635 8.18548 18.9499 8.39909C18.7363 8.61271 18.4465 8.73271 18.1445 8.73271C17.8424 8.73271 17.5526 8.61271 17.339 8.39909C17.1254 8.18548 17.0054 7.89575 17.0054 7.59365C17.0054 7.29155 17.1254 7.00183 17.339 6.78821C17.5526 6.5746 17.8424 6.45459 18.1445 6.45459C18.4465 6.45459 18.7363 6.5746 18.9499 6.78821C19.1635 7.00183 19.2835 7.29155 19.2835 7.59365Z" fill="#FF734F"/>
  <path d="M20.8302 1.6792H6.03613C4.24121 1.6792 2.78613 3.13427 2.78613 4.9292V19.2293C2.78613 21.0242 4.24121 22.4793 6.03613 22.4793H20.8302C22.6252 22.4793 24.0802 21.0242 24.0802 19.2293V4.9292C24.0802 3.13427 22.6252 1.6792 20.8302 1.6792Z" stroke="#FF734F" stroke-width="1.5"/>
</svg>