<svg xmlns="http://www.w3.org/2000/svg" width="27" height="25" viewBox="0 0 27 25" fill="none">
  <path d="M8.93056 6.37256C8.14641 6.37256 7.57715 6.91329 7.57715 7.65833C7.57715 8.40338 8.13507 8.94334 8.90368 8.94334C9.2713 8.95529 9.62864 8.82087 9.89725 8.56961C10.0183 8.44991 10.1137 8.30693 10.178 8.1493C10.2422 7.99167 10.2738 7.82266 10.2709 7.65247C10.2529 6.89889 9.70185 6.37256 8.93056 6.37256Z" fill="#FF734F"/>
  <path d="M9.54775 8.21105C9.3722 8.36996 9.14104 8.45318 8.90448 8.44263C8.41904 8.44263 8.08008 8.12074 8.08008 7.65975C8.08008 7.19099 8.42235 6.87598 8.93149 6.87598C9.42941 6.87598 9.75818 7.18602 9.76939 7.65987C9.77142 7.76193 9.75284 7.86335 9.71475 7.95805C9.67667 8.05276 9.61987 8.13881 9.54775 8.21105Z" fill="#FF734F"/>
  <path d="M10.0737 9.36816H7.81738V17.6635H10.0737V9.36816Z" fill="#FF734F"/>
  <path d="M8.32129 9.86914H9.57356V17.1604H8.32129V9.86914Z" fill="#FF734F"/>
  <path d="M16.0241 9.36816C14.9778 9.36816 14.3372 9.72928 13.966 10.0687L13.8955 9.36816H11.3428V17.6634H13.8429V13.3035C13.8531 13.0721 13.8948 12.8431 13.9667 12.6229C14.2687 11.9724 14.6762 11.9724 15.2932 11.9724C16.0039 11.9724 16.6042 12.6389 16.6042 13.4276V17.6634H19.1145V12.9764C19.1145 10.4972 17.5124 9.36816 16.0241 9.36816Z" fill="#FF734F"/>
  <path d="M18.6113 17.1604H17.1052V13.4267C17.1052 12.3657 16.2749 11.4693 15.2921 11.4693C14.6615 11.4693 13.9469 11.4693 13.5101 12.4105C13.4068 12.697 13.3493 12.9979 13.3397 13.3022V17.16H11.8438V9.86927H13.4405L13.5424 10.8845H13.9537L14.0272 10.7658C14.1947 10.4963 14.7242 9.86914 16.0225 9.86914C17.269 9.86914 18.6107 10.8412 18.6107 12.9755L18.6113 17.1604Z" fill="#FF734F"/>
  <path d="M22.125 0.882812H5.125C3.33007 0.882812 1.875 2.33789 1.875 4.13281V20.591C1.875 22.3859 3.33007 23.841 5.125 23.841H22.125C23.9199 23.841 25.375 22.3859 25.375 20.591V4.13281C25.375 2.33789 23.9199 0.882812 22.125 0.882812Z" stroke="#FF734F" stroke-width="1.5"/>
</svg>