<svg width="55" height="54" viewBox="0 0 55 54" fill="none" xmlns="http://www.w3.org/2000/svg">
<g id="fad:modrandom">
<path id="Vector" fill-rule="evenodd" clip-rule="evenodd" d="M7.25001 31.2179C7.24951 31.1078 7.27104 30.9987 7.31332 30.897C7.3556 30.7953 7.41778 30.7031 7.49622 30.6257C7.57465 30.5484 7.66775 30.4876 7.77004 30.4468C7.87233 30.406 7.98175 30.386 8.09186 30.3881L13.2187 30.4674C13.6836 30.4746 14.0582 30.858 14.0555 31.3259L14.0051 39.6544C14.0041 39.765 14.025 39.8748 14.0666 39.9773C14.1083 40.0799 14.1699 40.1732 14.2478 40.2518C14.3257 40.3304 14.4184 40.3928 14.5205 40.4354C14.6227 40.478 14.7322 40.5 14.8429 40.5H16.5321C16.7558 40.4998 16.9703 40.4107 17.1283 40.2524C17.2864 40.0941 17.3751 39.8795 17.375 39.6558V10.9692C17.3751 10.8582 17.397 10.7483 17.4396 10.6458C17.4822 10.5433 17.5445 10.4502 17.623 10.3718C17.7016 10.2934 17.7948 10.2313 17.8974 10.1889C18 10.1466 18.1099 10.1249 18.2209 10.125H26.6541C26.7652 10.1247 26.8752 10.1464 26.9778 10.1887C27.0805 10.231 27.1738 10.2932 27.2524 10.3716C27.3309 10.4501 27.3933 10.5432 27.4358 10.6458C27.4783 10.7484 27.5001 10.8584 27.5 10.9694V32.9056C27.4998 33.1294 27.5885 33.344 27.7466 33.5024C27.9047 33.6607 28.1192 33.7498 28.3429 33.75H30.0321C30.143 33.7498 30.2528 33.7278 30.3552 33.6852C30.4575 33.6426 30.5505 33.5803 30.6288 33.5017C30.7071 33.4232 30.7691 33.33 30.8114 33.2274C30.8536 33.1249 30.8752 33.015 30.875 32.9041V24.4709C30.8745 24.3604 30.8961 24.2509 30.9385 24.1489C30.9809 24.0468 31.0433 23.9543 31.122 23.8768C31.2007 23.7992 31.2941 23.7381 31.3967 23.6972C31.4994 23.6562 31.6091 23.6362 31.7196 23.6383L36.7804 23.7172C36.8907 23.7193 37.0003 23.6993 37.1028 23.6585C37.2053 23.6177 37.2986 23.5568 37.3772 23.4795C37.4559 23.4021 37.5183 23.3098 37.5609 23.2081C37.6034 23.1063 37.6252 22.997 37.625 22.8867V17.7188C37.6251 17.6078 37.6471 17.498 37.6897 17.3955C37.7323 17.2931 37.7946 17.2 37.8732 17.1217C37.9517 17.0433 38.0449 16.9812 38.1475 16.9389C38.25 16.8966 38.3599 16.8749 38.4709 16.875H46.9041C47.1281 16.8748 47.343 16.9635 47.5016 17.1216C47.6602 17.2797 47.7496 17.4944 47.75 17.7183V29.6371C47.75 29.8606 47.6613 30.0749 47.5034 30.233C47.3455 30.3911 47.1314 30.4801 46.9079 30.4805H45.3225C45.2117 30.4803 45.102 30.4582 44.9997 30.4156C44.8974 30.3729 44.8045 30.3106 44.7263 30.232C44.6481 30.1535 44.5861 30.0603 44.5439 29.9578C44.5018 29.8553 44.4802 29.7455 44.4805 29.6346V21.2013C44.4807 21.0904 44.459 20.9806 44.4168 20.8781C44.3745 20.7756 44.3125 20.6824 44.2342 20.6038C44.1559 20.5253 44.063 20.4629 43.9606 20.4203C43.8582 20.3777 43.7485 20.3557 43.6376 20.3555H41.9484C41.7234 20.3561 41.5077 20.4449 41.3476 20.6029C41.1875 20.7609 41.0957 20.9754 41.092 21.2003L41.0135 26.1552C41.0094 26.3803 40.9172 26.5947 40.7568 26.7527C40.5964 26.9106 40.3805 26.9994 40.1554 27H35.0946C34.9836 27.0001 34.8737 27.022 34.7712 27.0645C34.6686 27.1071 34.5755 27.1694 34.4971 27.2479C34.4186 27.3265 34.3564 27.4197 34.314 27.5223C34.2717 27.6249 34.2499 27.7349 34.25 27.8459V36.2791C34.25 36.5035 34.1609 36.7186 34.0023 36.8773C33.8436 37.0359 33.6285 37.125 33.4041 37.125H24.9709C24.8598 37.1253 24.7498 37.1036 24.6472 37.0613C24.5445 37.019 24.4512 36.9568 24.3727 36.8784C24.2941 36.8 24.2318 36.7068 24.1893 36.6042C24.1468 36.5016 24.1249 36.3917 24.125 36.2806V14.3444C24.1252 14.1206 24.0365 13.906 23.8784 13.7477C23.7203 13.5893 23.5058 13.5002 23.2821 13.5H21.5929C21.3692 13.5002 21.1548 13.5893 20.9967 13.7476C20.8386 13.9059 20.7499 14.1205 20.75 14.3442V43.0308C20.7499 43.1418 20.728 43.2517 20.6854 43.3542C20.6429 43.4567 20.5805 43.5498 20.502 43.6282C20.4234 43.7066 20.3302 43.7687 20.2276 43.8111C20.125 43.8534 20.0151 43.8751 19.9041 43.875H11.4709C11.2465 43.875 11.0314 43.7859 10.8728 43.6273C10.7141 43.4686 10.625 43.2535 10.625 43.0291V34.5959C10.6252 34.485 10.6036 34.3751 10.5613 34.2726C10.519 34.1701 10.457 34.0769 10.3787 33.9984C10.3005 33.9198 10.2075 33.8575 10.1051 33.8148C10.0028 33.7722 9.89299 33.7502 9.7821 33.75H8.09291C7.98222 33.75 7.87261 33.7282 7.77035 33.6858C7.66808 33.6435 7.57516 33.5814 7.49689 33.5031C7.41862 33.4249 7.35653 33.3319 7.31417 33.2297C7.27181 33.1274 7.25001 33.0178 7.25001 32.9071V31.2179Z" fill="#F24E1E"/>
</g>
</svg>
