<svg width="131" height="130" viewBox="0 0 131 130" fill="none" xmlns="http://www.w3.org/2000/svg">
<mask id="mask0_114_2562" style="mask-type:luminance" maskUnits="userSpaceOnUse" x="0" y="0" width="131" height="130">
<path d="M130.328 0H0.328125V130H130.328V0Z" fill="white"/>
</mask>
<g mask="url(#mask0_114_2562)">
<path d="M83.7412 97.1462L75.5981 93.469C75.0985 93.2433 74.5104 93.4659 74.2849 93.9654C74.0593 94.465 74.2814 95.0527 74.7813 95.2784L80.556 97.886C79.9457 98.0566 79.2321 98.2429 78.4291 98.4303C75.5657 99.0978 71.576 99.7776 67.068 99.8286C58.0517 99.9298 47.0554 97.5226 38.7579 87.5779C30.4385 77.6075 29.7291 66.9734 31.1078 58.7849C31.7983 54.6846 33.0124 51.2064 34.0543 48.7537C34.5748 47.5284 35.0511 46.5622 35.3951 45.9057C35.5671 45.5776 35.7058 45.3271 35.8004 45.1607C35.8477 45.0775 35.884 45.0152 35.9077 44.9749C35.9196 44.9547 35.9285 44.94 35.9339 44.9307C35.9367 44.9262 35.9386 44.923 35.9396 44.9212C35.9402 44.9203 35.9406 44.9198 35.9407 44.9196C35.9406 44.9198 35.9404 44.92 35.0927 44.4034C34.245 43.8868 34.2446 43.8874 34.2443 43.8879C34.2442 43.8882 34.2437 43.8889 34.2434 43.8895C34.2426 43.8907 34.2417 43.8922 34.2405 43.8943C34.2382 43.8981 34.235 43.9034 34.231 43.9101C34.2229 43.9235 34.2116 43.9423 34.1972 43.9669C34.1682 44.016 34.1267 44.0873 34.0742 44.1798C33.9691 44.3647 33.8195 44.6349 33.6364 44.9842C33.2705 45.6824 32.7706 46.6972 32.2268 47.9774C31.1401 50.5357 29.8722 54.1657 29.15 58.4553C27.7034 67.0464 28.4455 78.3175 37.2334 88.8501C46.0432 99.4085 57.7152 101.92 67.0905 101.814C71.7784 101.761 75.9152 101.055 78.88 100.364C79.9022 100.125 80.7867 99.8881 81.5081 99.6793L78.7511 105.785C78.5253 106.285 78.747 106.873 79.2474 107.098C79.747 107.324 80.3347 107.102 80.5603 106.603L84.2375 98.4593C84.4626 97.9597 84.2408 97.3719 83.7412 97.1462Z" fill="#F86642"/>
<path d="M101.891 69.0017C102.959 60.3553 101.723 49.1274 92.4811 38.991C83.2165 28.8296 71.4453 26.8336 62.0838 27.3508C57.4029 27.6095 53.3006 28.4961 50.3694 29.317C49.3586 29.6001 48.4856 29.8757 47.774 30.116L50.2602 23.8953C50.4637 23.3862 50.216 22.8085 49.7069 22.605C49.1978 22.4015 48.62 22.6493 48.4165 23.1584L45.1007 31.4548C44.8973 31.964 45.1451 32.5416 45.6542 32.7451L53.9507 36.0609C54.4597 36.2644 55.0373 36.0166 55.2409 35.5075C55.4443 34.9985 55.1965 34.4207 54.6875 34.2173L48.804 31.8659C49.4062 31.6686 50.1107 31.4513 50.9048 31.2289C53.7361 30.436 57.6921 29.582 62.1934 29.3332C71.1967 28.8358 82.288 30.7582 91.0142 40.3288C99.7635 49.9247 100.939 60.5172 99.921 68.7583C99.4114 72.885 98.3508 76.4131 97.4178 78.9092C96.9515 80.1561 96.5184 81.1421 96.2034 81.8133C96.0456 82.1485 95.9185 82.4048 95.8307 82.5753C95.7875 82.6607 95.754 82.7241 95.7316 82.766C95.7207 82.7864 95.7127 82.8018 95.7078 82.811C95.705 82.8159 95.7031 82.8189 95.7022 82.8208C95.702 82.8214 95.7013 82.8219 95.7012 82.8226C95.7013 82.8219 95.7019 82.8219 96.571 83.3005C97.4406 83.7799 97.4414 83.7795 97.4415 83.7788C97.4416 83.7782 97.4417 83.7774 97.4425 83.7769C97.4427 83.7755 97.4436 83.7745 97.4453 83.772C97.4473 83.7683 97.4502 83.7628 97.454 83.756C97.461 83.7425 97.4717 83.7226 97.4854 83.6975C97.5119 83.6476 97.5497 83.5742 97.5986 83.4797C97.6956 83.29 97.8327 83.0138 98.0008 82.6568C98.3358 81.9435 98.7901 80.9073 99.2773 79.6044C100.25 77.001 101.358 73.3186 101.891 69.0017Z" fill="#F86642"/>
</g>
</svg>
