<svg width="131" height="130" viewBox="0 0 131 130" fill="none" xmlns="http://www.w3.org/2000/svg">
<mask id="mask0_114_2546" style="mask-type:luminance" maskUnits="userSpaceOnUse" x="0" y="0" width="131" height="130">
<path d="M130.984 0H0.984375V130H130.984V0Z" fill="white"/>
</mask>
<g mask="url(#mask0_114_2546)">
<path d="M55.5922 118.597C55.189 118.516 54.8171 118.281 54.5697 117.909L13.1514 55.6657C12.9109 55.3043 12.8235 54.8597 12.9093 54.4314C12.9951 54.0031 13.2466 53.6264 13.6082 53.3858L75.8078 11.9014C76.553 11.405 77.5521 11.6079 78.0436 12.3553L118.933 74.493C119.427 75.2433 119.224 76.2592 118.479 76.7613L56.8078 118.352C56.4358 118.603 55.9977 118.678 55.5922 118.597ZM16.75 55.2008L56.3611 114.729L115.342 74.9532L76.2359 15.5264L16.75 55.2008Z" fill="#FF734F"/>
<path d="M40.0674 112.623C39.787 112.624 39.5092 112.552 39.2618 112.409C38.889 112.194 38.6154 111.839 38.5019 111.421L18.8436 38.9619C18.73 38.5419 18.7861 38.0931 19.0007 37.715C19.215 37.3368 19.5699 37.0614 19.9862 36.9487L91.63 17.6177C92.4881 17.3868 93.3698 17.8971 93.6062 18.7628L113.263 90.6759C113.377 91.0949 113.322 91.5422 113.11 91.9197C112.898 92.2973 112.546 92.5739 112.132 92.6888L40.4899 112.565C40.3509 112.604 40.2093 112.623 40.0674 112.623ZM22.3944 39.6845L41.1936 108.977L109.713 89.9667L90.9149 21.1958L22.3944 39.6845Z" fill="#FF734F"/>
<path d="M66.3238 85.8143C65.9173 85.8143 65.5102 85.6605 65.1964 85.3514L45.7864 66.2658C45.473 65.9577 45.2962 65.5343 45.2962 65.0927C45.2962 64.6508 45.473 64.2278 45.7864 63.9196L65.1964 44.8341C65.83 44.2098 66.8425 44.2178 67.4675 44.8504L86.3383 63.9362C86.9703 64.5748 86.9703 65.6109 86.3383 66.2495L67.4675 85.3351C67.1519 85.6546 66.7379 85.8143 66.3238 85.8143ZM49.2344 65.0928L66.3082 81.881L82.9078 65.0928L66.3082 48.3045L49.2344 65.0928Z" fill="#FF734F"/>
</g>
</svg>
