<svg width="63" height="51" viewBox="0 0 63 51" fill="none" xmlns="http://www.w3.org/2000/svg">
<path d="M26.9706 0.667994L17.3346 35.708L14.1226 22.568C18.3079 22.568 21.7146 23.7847 24.3426 26.218C26.9706 28.6513 28.2846 32.0093 28.2846 36.292C28.2846 40.4773 26.9219 43.884 24.1966 46.512C21.5686 49.0427 18.2592 50.308 14.2686 50.308C10.1806 50.308 6.77391 49.0427 4.04858 46.512C1.42058 43.884 0.106578 40.4773 0.106578 36.292C0.106578 35.0267 0.203912 33.81 0.398578 32.642C0.593245 31.3767 0.982579 29.9167 1.56658 28.262C2.15058 26.6073 2.97791 24.4173 4.04858 21.692L12.5166 0.667994H26.9706ZM61.4266 0.667994L51.7906 35.708L48.5786 22.568C52.7639 22.568 56.1706 23.7847 58.7986 26.218C61.4266 28.6513 62.7406 32.0093 62.7406 36.292C62.7406 40.4773 61.3779 43.884 58.6526 46.512C56.0246 49.0427 52.7152 50.308 48.7246 50.308C44.6366 50.308 41.2299 49.0427 38.5046 46.512C35.8766 43.884 34.5626 40.4773 34.5626 36.292C34.5626 35.0267 34.6599 33.81 34.8546 32.642C35.0492 31.3767 35.4386 29.9167 36.0226 28.262C36.6066 26.6073 37.4339 24.4173 38.5046 21.692L46.9726 0.667994H61.4266Z" fill="#FF734F"/>
</svg>
