<svg width="63" height="51" viewBox="0 0 63 51" fill="none" xmlns="http://www.w3.org/2000/svg">
<path d="M36.0294 0.667994L45.6654 35.708L48.8774 22.568C44.6921 22.568 41.2854 23.7847 38.6574 26.218C36.0294 28.6513 34.7154 32.0093 34.7154 36.292C34.7154 40.4773 36.0781 43.884 38.8034 46.512C41.4314 49.0427 44.7408 50.308 48.7314 50.308C52.8194 50.308 56.2261 49.0427 58.9514 46.512C61.5794 43.884 62.8934 40.4773 62.8934 36.292C62.8934 35.0267 62.7961 33.81 62.6014 32.642C62.4068 31.3767 62.0174 29.9167 61.4334 28.262C60.8494 26.6073 60.0221 24.4173 58.9514 21.692L50.4834 0.667994H36.0294ZM1.57342 0.667994L11.2094 35.708L14.4214 22.568C10.2361 22.568 6.82942 23.7847 4.20142 26.218C1.57342 28.6513 0.259418 32.0093 0.259418 36.292C0.259418 40.4773 1.62208 43.884 4.34742 46.512C6.97542 49.0427 10.2848 50.308 14.2754 50.308C18.3634 50.308 21.7701 49.0427 24.4954 46.512C27.1234 43.884 28.4374 40.4773 28.4374 36.292C28.4374 35.0267 28.3401 33.81 28.1454 32.642C27.9508 31.3767 27.5614 29.9167 26.9774 28.262C26.3934 26.6073 25.5661 24.4173 24.4954 21.692L16.0274 0.667994H1.57342Z" fill="#FF734F"/>
</svg>
