<svg width="97" height="163" viewBox="0 0 97 163" fill="none" xmlns="http://www.w3.org/2000/svg">
<path fill-rule="evenodd" clip-rule="evenodd" d="M84.5959 97.4944C83.5039 93.246 82.4991 91.4441 80.5595 89.9678C78.7448 88.5862 76.0953 87.4258 72.2296 86.5782C68.2038 85.8728 68.0895 83.7738 67.0803 80.4008C66.7855 79.3862 65.3264 79.1162 64.6962 79.8472C64.6075 79.751 64.515 79.663 64.4195 79.584C64.5052 79.0997 63.8028 77.7136 63.8261 77.2511C64.0712 72.4221 62.4964 69.9975 58.5661 69.0965C57.7118 68.9002 51.9057 68.7844 51.0723 69.016C47.4289 70.026 43.8422 73.2343 44.3911 77.0985C43.2474 78.5973 42.1281 79.5126 40.3637 79.9954C37.6159 80.3451 38.9963 119.39 43.7684 142.782C45.816 152.819 94.7751 135.736 92.5625 130.709C92.8761 129.788 92.3045 128.776 92.5625 127.824C92.749 127.136 93.2273 126.851 93.468 126.169C93.8064 125.21 93.4386 123.922 93.0573 122.943C92.9009 122.456 93.3446 121.93 93.468 121.432C94.0531 119.083 92.7136 119.29 91.7472 117.72C91.7615 117.715 92.0127 116.595 92.012 116.6C92.1594 115.8 91.7894 114.775 91.466 114.107C91.2479 113.656 90.7801 113.373 90.3153 113.425C90.7831 111.83 91.375 110.504 92.012 108.968C93.1378 106.261 94.2087 103.429 95.8257 100.979C96.4875 99.9748 95.9528 99.052 94.8811 98.9835C91.4133 98.7632 87.9832 98.2623 84.5959 97.4944Z" fill="#D08B5B"/>
<path fill-rule="evenodd" clip-rule="evenodd" d="M79.1825 97.823L71.2655 111.262C71.2655 111.262 73.1434 111.45 73.9037 111.816C74.6641 112.182 78.1536 116.633 78.1536 116.633L78.7079 119.083L77.394 121.059L77.907 122.299C77.907 122.299 78.2725 121.459 79.1825 120.806C80.0925 120.154 82.0997 119.083 82.0997 119.083C82.0997 119.083 81.4326 118.725 81.4326 118.305C81.4326 117.884 80.8453 116.091 82.0997 115.415C83.3542 114.737 89.8377 113.152 89.8377 113.152L96.4085 99.2504L79.1825 97.823Z" fill="#AFAFAF"/>
<path fill-rule="evenodd" clip-rule="evenodd" d="M43.865 80.0869L69.0032 84.5121L80.5587 89.9675L82.4456 91.425L71.2647 111.262L54.001 114.422L49.6029 125.881L50.5007 138.798L78.5853 135.44L90.6996 133.996L93.5476 145.528L93.0332 150.272L92.2849 152.677L62.2527 160.811C62.2527 160.811 46.9595 159.324 44.2486 159.324C41.5377 159.324 21.6617 161.303 21.6617 161.303L17.0629 160.811C17.0629 160.811 6.88824 150.054 5.3101 146.225C3.73205 142.397 0.31955 119.125 0.31955 119.125L0.695281 115.55L9.48602 92.857C9.48602 92.857 10.6599 91.7883 12.1398 89.9675C13.6198 88.1468 43.865 80.0869 43.865 80.0869Z" fill="#FF734F"/>
<path fill-rule="evenodd" clip-rule="evenodd" d="M89.3624 112.866C87.0904 112.982 84.8161 113.524 82.7615 114.505C81.9207 114.908 81.1588 115.488 80.9355 116.443C80.8226 116.931 80.8505 117.435 80.9106 117.929C80.9558 118.302 80.967 118.778 81.2904 119.03C81.3453 119.073 81.404 119.106 81.4657 119.13C80.7076 119.473 79.9856 119.885 79.3441 120.31C78.7575 120.698 78.1551 121.297 77.8843 121.972C77.8618 121.896 77.8392 121.824 77.8166 121.756C77.3556 120.389 76.6449 119.268 75.5259 118.515C75.3988 118.05 74.0353 116.051 72.7688 116.127C71.3812 116.209 70.2659 116.31 69.0115 116.95C68.5542 116.94 68.0977 116.946 67.6465 116.967C67.569 116.969 67.5728 117.075 67.6465 117.083C68.0127 117.13 68.3782 117.181 68.7445 117.242C69.6139 117.381 70.481 117.559 71.3293 117.778C72.3469 118.043 73.3998 118.308 74.3504 118.769C76.1952 119.666 77.3368 122.009 77.1022 124.047C77.0638 124.382 76.9345 125.393 76.472 125.288C76.0809 125.2 75.9259 124.382 75.7891 124.079C75.4236 123.274 74.764 122.749 73.9736 122.394C73.0448 121.975 72.0513 121.692 71.0887 121.363C70.5442 121.175 69.9989 120.988 69.4522 120.801C68.8934 120.61 68.3624 120.344 67.7668 120.479C67.4073 120.56 67.366 120.99 67.5675 121.237C67.8751 121.613 68.3308 121.724 68.7731 121.878C69.3574 122.081 69.9403 122.285 70.5224 122.489C71.4233 122.803 72.3672 123.068 73.2456 123.453L73.2178 123.516C73.1463 123.495 73.0621 123.568 73.0764 123.656C73.208 124.469 73.3907 125.409 73.1877 126.224C73.0275 126.87 72.4619 127.585 71.7279 127.395C71.843 127.29 71.8859 127.108 71.8084 126.939C71.5174 126.316 67.7081 123.854 67.369 124.768C67.3577 124.8 67.3923 124.824 67.4201 124.82C67.7096 124.759 68.1947 125.254 68.4264 125.412C68.7603 125.638 69.1002 125.859 69.4311 126.092C69.7936 126.346 70.1463 126.612 70.4915 126.887C70.7623 127.104 70.9661 127.329 71.2767 127.438C71.1142 127.516 70.9849 127.66 70.93 127.845C70.7894 128.327 70.5186 128.735 70.0486 128.948C69.5567 129.169 69.0017 129.029 68.4828 129.083C67.7758 129.155 67.1591 129.492 66.644 129.974C65.5632 130.987 65.0203 132.772 63.5079 133.25C62.6046 133.536 61.6021 133.356 60.6876 133.227C59.6663 133.082 58.6713 132.968 57.6425 133.119C56.6573 133.263 55.7262 133.605 54.8268 134.023C53.983 134.413 53.0511 134.856 52.3028 135.439C52.1488 134.963 51.9934 134.491 51.8755 134.005C51.5975 132.855 51.4471 131.683 51.4107 130.502C51.377 129.377 51.4396 128.246 51.536 127.126C51.5837 126.567 51.6589 126.01 51.7065 125.451C51.7189 125.309 51.7441 125.159 51.7629 125.008C53.0985 124.217 54.5019 123.611 55.9165 122.988C55.9203 122.987 55.924 122.984 55.9278 122.983C55.9722 122.963 56.0143 122.944 56.0587 122.925C56.0572 122.922 56.0556 122.92 56.0534 122.918C56.2151 122.819 56.3279 122.686 56.3956 122.538C58.4344 121.181 60.1386 119.33 61.4088 117.17C61.9413 116.265 62.4542 115.326 63.1506 114.533C63.8929 113.687 64.7736 113.184 65.8633 112.922C67.1381 112.616 68.4512 112.433 69.7568 112.328C70.4697 112.272 71.2669 112.184 72.0438 112.187C72.5853 112.191 73.1147 112.237 73.6013 112.372C74.3218 112.57 74.743 113.12 75.195 113.676C75.6274 114.209 76.0576 114.743 76.4607 115.299C76.8427 115.825 77.2037 116.37 77.5173 116.94C77.7053 117.282 77.8791 117.634 78.0257 117.997C78.0776 118.126 78.1453 118.272 78.1761 118.405C78.2077 118.539 78.1498 118.681 78.3002 118.681C77.6798 118.69 77.2676 120.241 77.8843 120.205C78.7515 120.155 79.1869 119.112 79.0169 118.187C78.7139 116.537 77.0774 114.544 76.754 114.122C76.0388 113.189 75.3002 111.972 74.1556 111.538C74.139 111.532 74.1217 111.526 74.1052 111.521C74.4384 111.204 74.7016 110.825 74.9535 110.439C75.213 110.041 75.5221 109.586 75.6078 109.114C75.6612 108.814 75.289 108.644 75.1122 108.906C74.8558 109.29 74.7317 109.775 74.5399 110.196C74.3444 110.623 74.1067 111.027 73.9187 111.458C73.466 111.319 72.9771 111.255 72.48 111.233C73.108 110.381 74.1804 108.736 74.309 108.526C74.9031 107.547 75.4687 106.539 76.0087 105.529C76.5923 104.436 77.0924 103.297 77.6512 102.191C77.9686 101.564 78.2882 100.931 78.6402 100.323C78.7612 100.114 78.8921 99.9054 79.0395 99.7158C79.0688 99.6782 79.1049 99.6466 79.1388 99.6113C79.1779 99.5895 79.2177 99.5662 79.2403 99.5534C79.4434 99.4368 79.5148 99.1653 79.6577 98.9931C79.8856 98.7148 80.1533 98.6825 80.497 98.6787C81.2288 98.6712 81.9628 98.6998 82.6938 98.7201C83.7677 98.7502 84.8402 98.793 85.9126 98.8494C86.2375 98.8667 86.5609 98.8848 86.885 98.9051C88.4456 98.9976 90.0039 99.1194 91.5591 99.2691C92.9347 99.4015 94.3109 99.6166 95.688 99.7196C93.8236 104.164 91.7562 108.526 89.415 112.738C89.3909 112.781 89.3736 112.823 89.3624 112.866ZM79.0169 124.314C78.7161 124.453 78.4243 124.624 78.1528 124.821C78.1979 124.515 78.2092 124.193 78.1964 123.871C78.4206 124.111 78.7078 124.25 79.0169 124.314ZM91.8547 116.67C91.8336 116.673 91.8133 116.684 91.8036 116.705C91.3877 117.566 91.5614 118.528 92.2413 119.203C92.597 119.555 93.3724 119.952 93.3475 120.53C93.3257 120.998 92.8188 121.39 92.6015 121.776C92.3999 122.136 92.3247 122.53 92.4864 122.92C92.6933 123.419 93.2708 123.618 93.4686 124.108C93.7198 124.73 93.3122 125.481 93.0264 126.022C92.7609 126.524 92.4172 127.026 92.1894 127.556C90.6619 128.349 87.1964 129.79 86.779 129.871C86.2699 129.97 85.76 130.064 85.2486 130.152C84.2679 130.323 83.2842 130.481 82.2975 130.621C81.7364 130.7 81.1739 130.778 80.6113 130.839C80.1202 130.893 79.5659 130.964 79.1704 130.593C78.3717 129.844 78.8192 128.588 79.3245 127.832C79.3343 127.817 79.3343 127.802 79.3306 127.79C79.8066 127.678 80.2819 127.548 80.755 127.456C81.6665 127.28 82.5832 127.132 83.5023 126.999C85.3892 126.729 87.2889 126.55 89.1856 126.371C89.6557 126.325 89.6609 125.584 89.1856 125.628C86.4601 125.878 83.7211 126.116 81.0325 126.642C80.3579 126.773 79.6885 126.921 79.0237 127.089C78.7094 127.166 78.3717 127.289 78.0423 127.293C78.022 127.293 78.0024 127.293 77.9821 127.291C77.3368 127.271 77.2428 126.716 77.5978 126.255C77.6414 126.198 77.6865 126.142 77.7332 126.088C78.3596 125.339 79.1403 124.839 79.9442 124.32C80.8452 124.197 81.7439 123.923 82.6261 123.722C84.8041 123.224 86.9821 122.727 89.1608 122.23C89.588 122.132 89.4067 121.473 88.9788 121.57C87.325 121.946 85.6712 122.321 84.0167 122.697L81.5958 123.248C81.1122 123.358 80.5083 123.577 79.9397 123.657C79.6585 123.695 79.387 123.701 79.141 123.643C78.3484 123.455 78.3077 122.46 78.6499 121.869C79.0335 121.205 79.7577 120.79 80.4007 120.415C81.5145 119.762 82.6998 119.294 83.858 118.753C84.0633 118.708 84.2686 118.663 84.4747 118.617C85.6697 118.353 87.0355 118.223 88.1606 117.74C88.4982 117.596 88.314 117.063 87.9808 117.07C87.1069 117.09 86.1939 117.401 85.3403 117.586C84.4168 117.787 83.4917 117.987 82.5682 118.187C82.4757 118.207 81.9267 118.383 81.844 118.344C81.7913 118.319 81.7725 118.135 81.7552 118.015C81.6988 117.618 81.6574 117.201 81.7191 116.802C81.8545 115.908 82.5975 115.488 83.3488 115.145C85.0229 114.382 86.8587 113.904 88.6862 113.713C89.1066 113.669 89.5278 113.642 89.9512 113.628C90.4491 113.612 90.859 113.525 91.1109 114.016C91.5065 114.79 91.7246 115.786 91.8547 116.67ZM89.5301 144.746C89.1653 143.481 89.2646 142.129 89.0149 140.838C88.8855 140.172 88.7096 139.511 88.517 138.862C88.3621 138.336 88.1034 137.778 88.0741 137.23C88.0726 137.193 88.1154 137.172 88.1448 137.188C88.6599 137.485 89.0548 138.123 89.3481 138.625C89.6993 139.226 89.9678 139.854 90.1844 140.515C90.6153 141.831 90.9695 143.419 90.4137 144.746C90.2483 145.141 89.6662 145.22 89.5301 144.746ZM75.2942 154.327C74.7505 153.946 74.3541 153.415 73.8931 152.945C73.4404 152.483 74.1488 151.772 74.6023 152.234C74.9957 152.634 75.3371 153.134 75.8004 153.458C76.023 153.614 76.126 153.896 75.9801 154.147C75.8507 154.368 75.5161 154.483 75.2942 154.327ZM72.2626 139.701C73.2554 139.271 74.2308 138.802 75.2694 138.492C75.8906 138.307 76.1531 139.277 75.5364 139.462C74.5798 139.748 73.6825 140.173 72.7688 140.57C72.1822 140.824 71.6723 139.957 72.2626 139.701ZM61.7834 139.4C61.5405 138.799 62.5106 138.54 62.7498 139.132C63.025 139.814 63.3409 140.479 63.6162 141.16C63.8583 141.761 62.8882 142.019 62.649 141.428C62.3737 140.745 62.0586 140.081 61.7834 139.4ZM51.44 151.395C51.2784 151.611 51.0088 151.728 50.7542 151.575C50.5409 151.447 50.4107 151.106 50.5744 150.887C51.0522 150.249 51.5363 149.618 52.0962 149.048C52.5503 148.586 53.2587 149.298 52.8052 149.759C52.3051 150.267 51.8668 150.824 51.44 151.395ZM49.9609 84.0924C50.421 84.4075 50.8241 84.7903 51.2172 85.1844C51.6742 85.6424 50.9652 86.3539 50.5083 85.8959C50.1771 85.5635 49.843 85.2265 49.4549 84.9603C49.2307 84.8069 49.1301 84.5211 49.2751 84.2722C49.4051 84.0496 49.7372 83.939 49.9609 84.0924ZM65.009 100.275C64.7488 100.798 64.5149 101.31 64.4998 101.904C64.484 102.551 63.4815 102.551 63.4981 101.904C63.5169 101.127 63.8027 100.453 64.1434 99.7677C64.4321 99.1879 65.2963 99.6978 65.009 100.275ZM70.5299 87.2782C71.0691 86.9179 71.57 87.7888 71.036 88.1461C70.6028 88.4356 70.1696 88.7259 69.7372 89.0155C69.198 89.3757 68.6971 88.504 69.2311 88.1468C69.6643 87.8573 70.0967 87.5677 70.5299 87.2782ZM46.5824 110.003C46.4904 110.642 45.5246 110.368 45.6156 109.736C45.7566 108.757 45.9286 107.792 46.1932 106.839C46.3663 106.215 47.3331 106.482 47.1598 107.106C46.8953 108.059 46.7233 109.024 46.5824 110.003ZM43.0674 121.523C42.4222 121.509 42.4221 120.503 43.0674 120.517C43.6513 120.529 44.2254 120.683 44.7886 120.825C45.4151 120.981 45.148 121.951 44.522 121.794C44.0459 121.675 43.5611 121.533 43.0674 121.523ZM41.7703 144.728C41.5487 144.837 41.3213 144.934 41.0971 145.037C40.6485 145.243 40.2 145.449 39.7516 145.655C38.8176 146.085 37.8841 146.517 36.9514 146.95C35.0843 147.817 33.2029 148.653 31.3313 149.511C29.4227 150.385 27.5192 151.272 25.618 152.163C24.7224 152.582 23.8199 152.986 22.9191 153.394C22.149 153.744 21.1971 154.355 20.3517 154.412C20.3081 154.415 20.2936 154.36 20.3184 154.332C20.6378 153.967 21.1473 153.755 21.5671 153.519C21.9959 153.276 22.4327 153.049 22.8675 152.818C23.774 152.336 24.6816 151.858 25.5969 151.393C27.4276 150.464 29.2618 149.541 31.0964 148.62C32.9675 147.68 34.8362 146.733 36.7237 145.826C37.6124 145.4 38.5019 144.974 39.392 144.55C39.8742 144.32 40.3566 144.091 40.839 143.862C41.0474 143.763 41.2537 143.656 41.4667 143.568C41.7498 143.45 41.965 143.474 42.2569 143.402C42.733 143.284 42.9392 143.891 42.5737 144.156C42.2727 144.373 42.1143 144.56 41.7703 144.728ZM35.0781 155.04C34.9752 154.79 35.1906 154.484 35.4282 154.422C35.7127 154.347 35.9409 154.52 36.0448 154.773C36.3196 155.443 36.711 156.059 37.2149 156.579C37.6652 157.043 36.9568 157.754 36.506 157.289C35.8746 156.638 35.421 155.877 35.0781 155.04ZM30.1547 138.898C29.6976 138.44 30.4066 137.728 30.8635 138.187L32.1627 139.49C32.6197 139.948 31.9106 140.66 31.4538 140.201L30.1547 138.898ZM16.8253 136.773C15.8912 137.048 14.8019 137.3 14.165 138.1C14.134 138.139 14.0817 138.088 14.1004 138.05C14.9157 136.354 17.2536 135.759 18.8723 135.166C20.0172 134.746 21.192 134.397 22.3767 134.086C22.2582 132.73 22.5848 131.277 22.6983 129.928C22.8195 128.488 22.9181 127.043 22.9687 125.598C23.0205 124.124 23.033 122.64 22.9846 121.166C22.9365 119.697 22.7465 118.247 22.6632 116.782C22.6552 116.641 22.8517 116.634 22.894 116.751C23.386 118.11 23.5961 119.615 23.7563 121.047C23.9212 122.523 23.9759 123.994 23.9549 125.479C23.9331 127.005 23.8446 128.527 23.7232 130.048C23.6657 130.769 23.5989 131.489 23.5359 132.21C23.4878 132.759 23.4654 133.305 23.3537 133.837C24.0681 133.662 24.7843 133.495 25.4982 133.333C27.7745 132.818 30.0604 132.34 32.3272 131.782C33.4398 131.509 34.5367 131.181 35.6444 130.89C36.6874 130.617 37.7884 130.284 38.8593 130.162C39.2414 130.119 39.2901 130.643 39.0371 130.821C38.1667 131.434 37.0107 131.861 36.0054 132.204C34.9965 132.549 33.9476 132.796 32.9135 133.051C30.7568 133.584 28.5797 134.018 26.4059 134.472C24.2351 134.925 22.0601 135.373 19.9137 135.932C18.8801 136.202 17.8499 136.472 16.8253 136.773ZM11.7073 109.869C11.1492 110.197 10.6454 109.328 11.2014 109C11.9291 108.571 12.7047 108.25 13.4864 107.936C14.0864 107.695 14.3445 108.668 13.753 108.905C13.0504 109.187 12.3612 109.484 11.7073 109.869ZM9.68602 147.231C9.12641 147.556 8.62215 146.687 9.1801 146.363C9.96383 145.907 10.822 145.603 11.6342 145.204C12.2119 144.92 12.7194 145.788 12.14 146.072C11.328 146.471 10.4697 146.775 9.68602 147.231ZM8.77722 126.022C9.31834 126.538 10.0405 126.78 10.7214 127.051C11.3151 127.287 11.0547 128.26 10.4549 128.021C9.60653 127.684 8.7424 127.375 8.0684 126.733C7.59949 126.286 8.30959 125.576 8.77722 126.022ZM14.7634 97.2197C15.3582 97.4536 15.0977 98.426 14.4969 98.1891C13.8305 97.9267 13.1423 97.7274 12.476 97.4649C11.8812 97.231 12.1416 96.2593 12.7425 96.4955C13.4088 96.7572 14.097 96.9573 14.7634 97.2197ZM25.3233 85.7793C25.9554 85.6725 26.2245 86.6412 25.5899 86.7487C24.8024 86.8826 24.0271 87.0383 23.2802 87.3286C22.6771 87.5625 22.4183 86.5893 23.0137 86.3584C23.7606 86.0689 24.536 85.9124 25.3233 85.7793ZM28.8124 113.634C28.2328 113.348 28.7414 112.481 29.3183 112.766C29.9263 113.065 30.5562 113.297 31.2196 113.439C31.8513 113.574 31.5822 114.543 30.9531 114.409C30.2065 114.249 29.4961 113.971 28.8124 113.634ZM32.1077 97.944C32.7317 97.7725 32.9956 98.7427 32.3742 98.9134C31.281 99.2142 30.1553 99.3699 29.0539 99.6376C28.4263 99.7903 28.1608 98.8201 28.7874 98.6682C29.8887 98.4005 31.0145 98.244 32.1077 97.944ZM46.0878 93.0202C46.7223 93.1375 46.4519 94.1069 45.8213 93.9896C45.1501 93.8648 44.4698 93.8633 43.7892 93.8625C43.1431 93.8625 43.1443 92.857 43.7892 92.857C44.5624 92.8577 45.3256 92.8781 46.0878 93.0202ZM91.6817 98.2741C90.0445 98.1169 88.4042 97.9913 86.761 97.8966C86.6842 97.8928 86.6098 97.8876 86.5331 97.8838C86.5241 97.8665 86.5128 97.85 86.5015 97.8327C85.9653 97.043 85.5704 96.2533 85.229 95.3614C84.9018 94.5115 84.5845 93.6354 84.0806 92.8683C83.506 91.9944 82.7306 91.3108 81.8808 90.7189C81.3649 91.0663 80.8866 91.4739 80.4489 91.9056C79.9879 92.3599 79.2787 91.6484 79.7397 91.1942C80.1285 90.8106 80.5444 90.4564 80.9828 90.136C80.476 89.8269 79.9593 89.5366 79.4547 89.2478C77.5632 88.1656 75.6274 87.1646 73.6517 86.2501C72.7327 85.8237 71.8031 85.4454 70.8676 85.0618C70.3637 84.8558 69.8658 84.5903 69.3619 84.3519C69.3988 83.9947 69.292 83.5946 69.019 83.3599C68.8174 83.1877 68.6603 83.123 68.4203 83.0012C68.3662 82.9824 68.3339 82.9711 68.3188 82.9651C68.3301 82.9673 68.3624 82.9779 68.4158 82.9952C68.5437 83.0546 68.5542 83.0365 68.4467 82.9433C68.4399 82.7402 68.0406 82.31 67.9488 82.1002C67.6307 81.3797 67.5314 80.6179 67.0614 79.9621C66.4138 79.0581 65.3264 78.7159 64.3126 79.0228C64.2073 77.9353 64.1795 76.8004 63.7711 75.8295C63.7598 75.8032 63.7237 75.7919 63.7072 75.8212C63.2815 76.5492 63.2446 77.3599 63.2123 78.1993C63.1807 78.9874 63.2108 79.7936 63.3138 80.5765C63.2484 80.6269 63.1822 80.675 63.113 80.7209C62.7896 80.9345 62.4414 81.0992 62.0759 81.2218C61.3788 81.4527 60.6485 81.5535 59.9183 81.5888C58.0321 81.6791 56.0887 81.488 54.2341 81.1639C52.3585 80.8352 49.4824 80.3426 47.8132 79.4011C46.7117 78.7806 45.6956 78.0225 44.6655 77.2877C45.0389 76.0814 45.1342 74.7841 44.7583 73.7643C44.7131 73.6425 44.5227 73.6199 44.4864 73.7643C44.2508 74.7375 44.1819 75.7152 43.8686 76.6771C43.8636 76.6906 43.8586 76.7064 43.8535 76.7199C43.7558 76.653 43.6581 76.5876 43.5604 76.5221C43.3348 76.3725 43.0278 76.4845 42.8925 76.6981C40.7283 80.1193 37.3012 80.3148 33.7025 80.9262C29.7639 81.5948 25.8056 82.3161 22.0188 83.6246C18.3975 84.8768 14.9365 86.6998 12.1948 89.4231C11.5742 90.039 10.9937 90.6963 10.4459 91.3814C10.976 91.4484 11.5016 91.5529 12.0205 91.7169C12.6349 91.9102 12.3708 92.8811 11.754 92.6863C11.087 92.4765 10.4128 92.3719 9.7316 92.3208C7.86866 94.877 6.41612 97.7763 5.16009 100.63C2.75078 106.1 1.18257 111.926 0.460889 117.859C0.857152 117.62 1.26049 117.393 1.6739 117.183C2.24832 116.889 2.75491 117.757 2.17988 118.05C1.54131 118.377 0.921077 118.736 0.320102 119.125C0.0575557 121.721 -0.044198 124.335 0.0174714 126.944C0.164049 133.164 1.0011 139.566 2.8945 145.501C3.82299 148.414 5.05352 151.302 6.88676 153.764C7.71628 154.879 8.65862 155.885 9.76882 156.723C10.3064 157.13 10.8753 157.493 11.4756 157.8C12.2487 158.197 13.2561 158.328 13.9228 158.89C14.1421 159.075 14.3112 159.318 14.439 159.594C14.3651 160.117 14.3563 160.641 14.4992 161.164C14.5443 161.328 14.6671 161.461 14.8187 161.525C14.8212 161.57 14.8212 161.614 14.8212 161.657C14.8212 161.677 14.8513 161.682 14.855 161.662C14.8613 161.623 14.8676 161.584 14.8738 161.544C14.9227 161.56 14.9741 161.568 15.0267 161.568C16.9301 161.575 18.8359 161.528 20.7418 161.463C20.5945 161.011 20.4348 160.562 20.2816 160.109C20.0735 159.494 21.042 159.232 21.2482 159.841C21.4276 160.371 21.615 160.896 21.7818 161.427C23.8239 161.351 25.8654 161.26 27.9033 161.192C32.2376 161.047 36.5708 160.999 40.9062 160.908C47.6391 160.765 54.4207 160.471 61.1644 160.758C61.3976 160.262 61.6585 159.776 61.906 159.287C62.1978 158.709 63.0626 159.218 62.7716 159.795C62.5994 160.134 62.4211 160.471 62.2519 160.811C63.6177 160.881 64.9819 160.975 66.3439 161.104C68.667 161.323 70.9676 161.711 73.2885 161.952C75.6477 162.199 77.9558 162.155 80.2962 161.764C80.7174 161.694 80.9655 161.438 81.0686 161.121C81.0723 161.12 81.0746 161.117 81.0769 161.114C81.1972 160.973 81.31 160.856 81.4266 160.754C81.5657 160.664 81.7161 160.587 81.8928 160.52C82.2223 160.393 82.5659 160.316 82.9141 160.265C83.2977 160.207 83.6858 160.202 84.0693 160.155C84.3927 160.113 84.7086 160.052 85.0244 159.977C85.5922 159.84 86.1307 159.663 86.6669 159.428C87.1347 159.223 87.5566 158.929 87.9552 158.609C88.7795 158.004 89.494 157.232 90.1182 156.43C90.4814 155.961 90.8236 155.475 91.1342 154.968C91.6757 154.091 92.1367 153.179 92.603 152.26C92.7722 151.988 92.9264 151.709 93.0678 151.424C92.1563 151.155 91.2373 150.936 90.2709 150.92C89.6256 150.91 89.6256 149.904 90.2709 149.915C91.3786 149.932 92.4263 150.191 93.4671 150.501C93.5183 150.366 93.5664 150.23 93.6115 150.091C93.7356 149.804 93.8386 149.509 93.9236 149.209C93.974 149.074 94.0237 148.938 94.074 148.802C94.1868 148.332 94.2997 147.861 94.414 147.389C94.6403 146.635 94.8193 145.869 94.9509 145.094C95.0615 144.583 95.1465 144.069 95.2044 143.548C95.3796 142.288 95.5225 141.03 95.5323 139.755C95.5173 138.969 95.4676 138.185 95.3826 137.404C95.3458 136.874 95.2849 136.346 95.2021 135.822C95.0938 135.042 94.9878 134.27 94.8081 133.501C94.6742 132.98 94.5403 132.46 94.4064 131.94C94.0718 130.855 93.6769 129.791 93.222 128.752C93.1971 128.686 93.07 128.543 92.9941 128.542C92.9362 128.54 92.8557 128.593 92.882 128.664C92.885 128.67 92.8873 128.677 92.8903 128.684C92.864 128.624 92.8384 128.564 92.8121 128.505C92.7895 128.45 92.7023 128.339 92.6346 128.341C92.6308 128.341 92.6263 128.341 92.6218 128.342C92.6391 128.33 92.6556 128.313 92.6722 128.294C93.1219 127.76 93.4137 127.057 93.7356 126.438C94.0026 125.928 94.2545 125.39 94.3275 124.813C94.3907 124.307 94.3049 123.807 93.9875 123.398C93.6266 122.931 92.9474 122.712 93.325 122.039C93.7537 121.272 94.3839 120.607 93.7559 119.736C93.4363 119.292 92.9302 119.048 92.5541 118.663C92.1217 118.216 91.9164 117.619 91.9276 117.01C91.954 117.025 91.9893 117.017 92.0014 116.979C92.3646 115.878 92.1014 114.668 91.7299 113.596C91.5268 113.015 91.0966 112.854 90.5965 112.826C92.7617 108.583 94.7885 104.273 96.5942 99.8625C96.6544 99.7181 96.713 99.5737 96.7717 99.4293C96.8597 99.2127 96.6739 98.9247 96.4596 98.8773C94.8983 98.5336 93.2723 98.4245 91.6817 98.2741Z" fill="black"/>
<path fill-rule="evenodd" clip-rule="evenodd" d="M74.8904 49.6473C74.0323 39.1287 71.4188 29.8125 59.1391 29.4153C53.5979 29.4651 47.9408 30.6486 42.8448 32.8385C30.4586 39.0818 26.5287 61.8955 37.4412 71.0789C37.3763 71.1157 37.3608 71.2233 37.4374 71.2751C39.6919 72.7996 42.1979 74.0548 44.7077 75.1084C51.3932 77.9497 59.2632 79.1846 66.0814 76.1019C76.487 71.6512 76.6427 59.2656 74.8904 49.6473Z" fill="#D08B5B"/>
<path fill-rule="evenodd" clip-rule="evenodd" d="M95.3721 44.7448C95.7993 44.3577 96.1182 43.8498 96.2799 43.2804C96.4273 42.7612 96.437 42.1943 96.2806 41.6763C96.1137 41.1207 95.7519 40.6782 95.8331 40.0999C95.8422 40.0434 95.8534 39.9844 95.8707 39.9252C96.1836 38.8366 96.9522 38.0509 96.6777 36.8441C96.5995 36.5035 96.4536 36.1967 96.2498 35.9554C96.2723 35.6939 96.2919 35.4299 96.3084 35.1659C96.7597 34.1037 96.7439 32.8416 96.2626 31.7957C96.2031 31.2602 96.1144 30.7297 95.9896 30.208C96.0475 29.7466 95.967 29.2388 95.8196 28.8353C95.5601 28.1253 95.2397 27.4256 94.8923 26.7375C94.9329 26.5493 94.9149 26.3504 94.8118 26.1736C94.6238 25.8521 94.3756 25.5695 94.1222 25.2934C93.9424 24.9712 93.7619 24.6516 93.5822 24.3362C93.4995 24.1913 93.4077 24.0305 93.3069 23.8602C93.5822 23.3465 93.7289 22.8459 93.4378 22.2419C93.3288 22.015 93.0279 21.8477 92.7797 21.8625C92.509 21.8788 92.236 21.8909 91.9615 21.9014C91.4478 21.2781 90.8665 20.7185 90.243 20.3965C89.6113 19.8585 88.9713 19.3305 88.3486 18.7912C88.1719 18.6379 87.9944 18.4845 87.8184 18.3311C87.8169 18.3274 87.8154 18.3223 87.8146 18.3186C87.6845 17.8421 87.5379 17.372 87.392 16.8993C87.3002 16.6064 87.2731 16.2997 86.9888 16.1401C86.3962 15.8069 85.4847 15.7541 84.8048 15.6975C84.7372 15.6372 84.6695 15.5781 84.6018 15.5178C84.9109 14.6906 84.856 13.812 84.4672 12.9835C84.3341 12.7019 83.8745 12.575 83.6218 12.761C83.039 13.1909 82.3471 13.343 81.6635 13.2802C80.658 12.5033 76.6028 8.99024 75.9764 8.61948C75.9688 8.60609 75.9621 8.59278 75.9545 8.57962C75.6018 8.01414 75.1739 7.56012 74.6933 7.19604C74.6249 7.124 74.5557 7.05187 74.4873 6.97967C74.5474 6.54867 74.7069 6.13247 74.9626 5.78419C74.9896 5.74403 75.0212 5.705 75.0528 5.66732C75.5003 5.13178 74.9535 4.44296 74.3286 4.72325C74.2835 4.74333 74.2383 4.76349 74.1932 4.78485C73.7126 5.00031 73.1809 5.23451 72.6274 5.43215C72.4244 5.35582 72.2175 5.2867 72.0295 5.21052L70.0117 4.39505C69.6793 4.26081 69.3288 4.14702 69.007 3.98924C68.8949 3.24018 68.1489 2.74886 67.3727 2.7745C67.4179 2.63071 67.4848 2.49105 67.5788 2.35869C67.6059 2.31973 67.636 2.28197 67.6675 2.24557C68.0661 1.77914 67.5337 0.91427 66.9636 1.32911C66.9237 1.35806 66.8824 1.38694 66.8425 1.4159C66.6838 1.52765 66.5214 1.63249 66.3574 1.73402C66.095 1.61888 65.7994 1.59263 65.4903 1.71447C64.8052 1.98408 64.1734 2.25821 63.571 2.68087C63.5462 2.69809 63.5207 2.71253 63.4958 2.72878C63.1965 2.36523 62.7212 2.12209 62.2933 2.12472C62.285 2.12472 62.2782 2.12464 62.27 2.12449C61.9503 1.63437 61.3637 1.34949 60.7974 1.41875C60.8358 0.715424 60.1349 0.0877496 59.4971 0.0114902C58.7526 -0.0775317 58.081 0.35729 57.8576 1.08792C57.7952 1.29128 57.7328 1.49479 57.6703 1.69837C57.092 1.40484 56.4821 1.1799 55.8443 1.06769C54.3921 0.811989 52.9722 1.08424 51.5727 1.48952C51.4329 1.52999 51.2933 1.57165 51.1536 1.61309C50.954 1.3807 50.7668 1.14275 50.5879 0.920587C50.279 0.537184 49.5376 0.843876 49.5876 1.3367C49.6223 1.67671 49.4849 1.92136 49.2638 2.09524C49.0208 2.13089 48.786 2.14172 48.4318 2.13457C47.9638 2.12502 47.7508 2.11028 47.2614 1.91843C47.0334 1.82923 46.7494 1.59451 46.6164 1.38378C46.1069 0.575915 44.8126 0.358268 44.1961 1.12861C43.5474 0.843124 42.7284 1.23683 42.3682 1.792C42.1798 2.08223 41.7867 2.24452 41.2918 2.38411C40.9203 2.48864 40.5404 2.56783 40.1587 2.6371C39.9887 2.40516 39.6306 2.24971 39.3679 2.4442C39.1899 2.57626 39.0171 2.71193 38.8467 2.85099C37.5325 3.03299 36.2251 3.03953 34.9721 2.52437C33.9113 2.08817 32.9372 3.27951 33.1123 4.27961C32.805 4.4404 32.4716 4.54742 32.1682 4.71581C31.5061 5.08364 30.9624 5.66506 30.631 6.34817C30.5716 6.47045 30.518 6.59469 30.4669 6.71946C30.2194 6.92199 29.9746 7.12994 29.7359 7.34931C29.3382 7.14438 28.9418 6.93951 28.5442 6.73458C28.2465 6.58123 27.7451 6.6881 27.6864 7.08534C27.5901 7.73896 27.3562 8.28082 27.0224 8.73462C25.937 9.30784 24.8929 9.95146 23.8938 10.6667C22.7447 11.0288 21.523 11.24 20.5189 11.4776C20.1751 11.5592 19.9875 12.0105 20.1813 12.311C20.3864 12.629 20.5915 12.9471 20.7953 13.2651C20.2238 13.8258 19.6874 14.4116 19.181 15.0174C17.7718 16.7019 16.5926 18.5486 15.5372 20.5046C15.1196 20.6743 14.702 20.8428 14.2843 21.0125C13.8817 21.1759 13.7004 21.6461 14.0267 21.9917C14.1818 22.1564 14.3206 22.3299 14.4394 22.5121C13.848 23.4965 13.1515 24.394 12.1773 24.9823C11.881 25.1608 11.6584 25.4411 11.5396 25.7592C11.4383 25.8271 11.3383 25.9 11.2396 25.9742C10.9645 26.1828 10.7981 26.6379 11.1207 26.9082C11.347 27.0993 11.5596 27.3255 11.7397 27.5757C11.7785 27.7177 11.8185 27.8611 11.8585 28.0031C10.9532 28.8403 10.2004 29.8133 9.63526 30.9044C9.50147 30.8831 9.36392 30.8969 9.25261 30.9799C8.24229 31.7304 8.21228 32.9258 8.61862 33.9943C8.3736 35.6046 8.53108 37.2552 9.00376 38.8153C8.38233 39.4387 8.00847 40.3388 7.85588 41.2062C7.58701 42.7298 7.56829 45.073 7.49827 46.628C6.82051 47.2855 6.33783 48.1365 6.06905 49.0516C5.84267 49.1648 5.61638 49.2779 5.39008 49.391C5.18876 49.4916 5.0412 49.7568 5.05368 49.9806C5.11122 51.0629 5.55509 51.9177 6.14403 52.6921C6.35288 53.2893 6.66175 53.8399 7.06689 54.3678C7.34696 54.7299 7.62078 55.0768 7.86212 55.4678C7.88716 55.5068 7.90213 55.5432 7.91341 55.5683C7.81835 55.6714 7.73961 55.8424 7.6708 55.9643C7.09314 56.9876 7.08441 58.1868 7.90469 59.0781C7.59581 59.3321 7.58581 59.8449 7.85836 60.1592C9.63271 62.1969 11.112 64.6746 13.5741 65.7569C13.5853 65.7758 13.5953 65.7947 13.6041 65.8135C13.1051 67.0203 13.0377 67.6476 13.4453 68.8949C13.4478 68.9062 13.4515 68.916 13.4553 68.9273C13.6729 69.5808 14.073 70.6284 14.7945 70.8315C15.0221 70.8962 15.2459 70.9248 15.4672 70.9233C16.0399 71.4783 16.6113 72.0333 17.1828 72.5891C17.2329 72.8643 17.2641 73.1426 17.2741 73.4224C17.2903 73.8917 17.7292 74.2714 18.2019 74.1331C18.3682 74.0842 19.2885 73.1847 19.4573 73.19C19.5424 73.2757 19.6249 73.3607 19.7074 73.4479C20.0113 73.7683 20.4327 74.2737 20.4677 74.6091C20.5352 75.2416 20.9478 75.9659 21.6143 76.0937C21.8644 76.3494 22.2645 76.4261 22.5709 76.0929C22.5909 76.0711 22.6109 76.0501 22.6322 76.0313C22.6646 76.0275 22.6959 76.0238 22.7284 76.02C22.876 76.4622 23.0235 76.9044 23.1724 77.3459C23.4637 78.216 24.5765 78.7756 25.3668 78.2672C25.4944 78.3439 25.6194 78.4259 25.7445 78.5078C25.9345 78.6297 26.1271 78.7538 26.3246 78.8711C26.3359 78.9034 26.3472 78.9365 26.3572 78.9673C26.4848 79.3584 27.0149 79.5682 27.3413 79.3434C27.4426 79.3765 27.5464 79.4028 27.6514 79.4239C28.2028 79.5336 28.758 79.5028 29.2907 79.3186C29.6721 79.1877 30.0359 78.9373 30.4461 78.9034C30.4717 78.9012 30.4981 78.9034 30.5241 78.9027C30.8587 79.5916 31.6233 80.1857 32.2259 80.3872C33.0152 80.6512 33.823 80.5572 34.5417 80.2331C34.7357 80.6234 34.9793 80.9919 35.2702 81.3333C35.4316 81.5221 35.7229 81.4815 35.8892 81.3333C36.205 81.0521 36.5189 80.7693 36.8323 80.4858C37.0591 80.3978 37.288 80.2925 37.5269 80.1947C38.2738 79.8879 39.0928 79.7608 39.7836 79.3178C40.1116 79.1072 40.4201 78.8387 40.6742 78.5274C41.1528 78.2499 41.5926 77.9032 41.9887 77.5068C42.1863 77.5083 42.3927 77.4617 42.5927 77.3594C43.4292 76.9323 43.8694 76.0629 43.9081 75.1724C44.5859 73.5698 44.986 71.8603 45.096 70.1103C45.1311 69.5357 45.1373 68.9559 45.0936 68.382C45.0635 67.9767 44.9622 67.7067 44.8097 67.3409C44.7584 67.2214 44.7122 67.1121 44.6759 66.9914C44.6847 66.6042 44.6897 66.2171 44.6947 65.8311C44.7984 65.5055 44.9835 65.2026 45.2411 64.9474C45.64 64.5527 45.8225 63.7331 45.46 63.2453C45.2236 62.9298 44.9885 62.6143 44.7522 62.2987C44.8184 60.9449 45.1411 58.7902 44.4258 58.564C44.4546 58.3628 44.5159 58.1642 44.5509 57.9643C44.7184 57.0039 44.6184 56.1453 44.1107 55.3056C44.0044 55.1309 43.9144 54.9762 43.8406 54.8254C43.7944 54.5488 43.7481 54.2723 43.7019 53.9957C43.6306 53.5696 43.5605 53.1396 43.5005 52.7072C43.4692 52.1566 43.4405 51.606 43.4092 51.0541C43.3805 50.5463 43.3479 50.0384 43.3142 49.5293C43.3279 49.3018 43.3479 49.0743 43.3767 48.8468C43.5481 47.4903 44.0995 46.9888 45.0548 46.0459C45.2049 46.0221 45.3536 45.9957 45.5 45.9655C46.1814 45.8235 46.8942 45.6035 47.5957 45.6827C48.3571 45.7681 49.0387 46.0988 49.7789 45.6764C49.9965 45.5507 50.4754 45.2037 50.5166 44.9284C50.5192 44.9108 50.5229 44.8957 50.5279 44.8844C50.5792 44.8769 50.6455 44.8706 50.6867 44.8693C51.2744 44.8492 51.8358 45.0818 52.4284 45.0177C53.1301 44.9423 53.7581 44.6293 54.1702 44.1654C54.6997 44.2961 55.2397 44.3552 55.7887 44.2823C56.2489 44.2219 56.6611 44.0711 57.0687 43.8473C57.365 43.6864 57.2717 43.6399 57.5944 43.7706C58.3284 44.0698 58.9917 44.4646 59.8182 44.2596C60.2477 44.154 60.6177 43.9215 60.929 43.6085C61.0027 43.5356 61.1276 43.4262 61.2118 43.3231C61.6044 43.523 62.5919 43.9743 62.7543 44.0145C63.2146 44.1276 63.7027 44.11 64.1501 43.9592C64.4788 43.8486 64.8819 43.5469 65.1707 43.4853C65.5445 43.4048 66.3747 43.9278 66.8207 44.1076C67.6036 44.423 68.4324 44.501 69.2258 44.1755C69.4981 44.0636 70.0283 43.6173 70.2321 43.621C70.5637 44.0321 71.4888 46.281 71.7663 47.1019C72.8906 50.4206 73.1817 60.7827 72.6628 63.4264C72.6432 63.5043 72.6214 63.5809 72.6003 63.6589C71.9626 65.9581 71.2985 68.2963 70.2321 70.4382C69.2258 72.4575 67.8337 74.2752 65.837 75.3777C63.7658 76.5216 61.3352 76.8217 59.0068 76.6668C57.5079 76.569 56.0338 76.2659 54.5831 75.8861C53.825 75.6891 53.0737 75.4695 52.3262 75.2401C51.9996 75.1408 51.6683 75.0483 51.3482 74.9325C50.783 74.7272 50.4866 74.7114 49.9452 74.9739C49.4525 75.213 49.3263 75.9177 49.5826 76.3614C50.0003 77.0857 50.7655 77.1361 51.5045 77.3474C52.257 77.5625 53.0128 77.7686 53.7724 77.9528C55.2291 78.3048 56.7099 78.5755 58.2028 78.6996C60.8764 78.9252 63.6312 78.5778 66.0641 77.4053C66.3394 77.2714 66.6049 77.1301 66.8613 76.9766C66.7658 77.1097 66.6695 77.2429 66.5718 77.3752C66.3018 77.7407 66.5018 78.3627 66.8809 78.5627C67.0012 78.6259 67.1208 78.6861 67.2426 78.7447C67.2584 78.7838 67.2765 78.8229 67.296 78.8621C67.6427 79.5607 68.3677 79.9736 69.107 80.1518C69.9846 80.3632 70.9676 80.2135 71.8603 80.1872C72.6876 80.1616 73.5156 80.1368 74.3421 80.1112C74.5377 80.1067 74.7324 80.1 74.9272 80.0939C75.9102 80.0639 76.8916 80.0345 77.8738 80.0044C78.7485 79.9781 78.7079 80.0466 79.5291 79.6938C79.8954 79.5359 80.1954 79.3118 80.4481 79.014C80.6053 78.944 80.758 78.8636 80.9046 78.7718C81.3747 78.477 81.7921 78.0829 82.1771 77.6475C82.8314 77.855 83.7482 77.6625 83.8753 76.8367C84.0806 75.5154 85.7886 74.9513 86.5865 73.9962C87.2303 73.2253 87.6905 72.2161 87.6665 71.2466C89.2902 70.457 90.1723 68.3768 90.3792 66.6117C90.4754 65.7934 90.4604 64.9173 90.5988 64.085C90.6604 64.0184 90.7153 63.948 90.762 63.8726C91.1696 63.2102 91.5246 62.5275 91.8367 61.8286C92.2623 61.5206 92.7737 61.3308 93.3084 61.2994C94.6238 61.2227 94.872 59.4388 93.6175 59.009C93.6115 59.0064 93.6063 59.0052 93.6002 59.0026C93.9402 58.1479 93.9116 57.1359 93.4987 56.3263C93.516 56.2384 93.5326 56.1516 93.5491 56.0637C94.253 55.3031 94.6569 54.2459 94.6118 53.2163C94.9329 52.9888 95.2932 52.8129 95.6872 52.7034C96.2957 52.535 96.2994 51.7883 95.8497 51.4539C95.6684 51.3194 95.518 51.1623 95.3932 50.9888C95.7045 50.0485 95.5819 48.9612 94.9457 48.1893C95.3495 47.6689 95.7534 47.1484 96.1573 46.628C96.425 46.2836 96.5664 45.699 96.1573 45.3721C95.8956 45.1622 95.6346 44.9535 95.3721 44.7448Z" fill="black"/>
<path fill-rule="evenodd" clip-rule="evenodd" d="M65.9792 64.279C66.4094 63.5179 67.6917 63.6417 67.8879 64.5293C68.2858 66.3286 66.1469 67.9902 64.5225 68.0315C62.9085 68.0729 61.0968 66.6945 61.3307 64.9534C61.3886 64.5228 61.9617 64.575 62.1572 64.845L62.2332 64.9487C62.7641 65.6642 63.4643 66.4048 64.4503 66.2303C64.8586 66.1582 65.2294 65.9023 65.4761 65.5728C65.7739 65.1752 65.7416 64.7004 65.9792 64.279ZM55.7143 51.1149C55.9331 51.0544 56.1535 51.0778 56.3475 51.1605C56.7799 51.2401 57.1417 51.6022 57.2688 52.0155C57.2786 52.0512 57.2898 52.0866 57.3026 52.1215L57.3214 52.1737L57.2695 52.0412C57.2936 52.1717 57.3996 52.3089 57.438 52.4399C57.4846 52.6009 57.4959 52.7838 57.4801 52.9611C57.6177 52.9624 57.7554 52.9671 57.893 52.979L58.0254 52.9909C58.7677 53.0601 59.5821 53.1871 60.0221 53.8304C60.2695 54.192 60.0379 54.8429 59.5836 54.9125C58.885 55.0198 58.2826 54.6318 57.5862 54.5542C56.9281 54.4806 56.2392 54.5227 55.5894 54.642C54.2477 54.8881 53.0144 55.4336 51.7073 55.7759L51.5292 55.8212L51.5296 55.8204C51.3054 55.8747 51.0511 55.5622 51.2728 55.3794C52.3202 54.5162 53.6611 53.8166 54.9825 53.3906C54.79 53.0835 54.7306 52.679 54.8622 52.3492C54.8825 52.2809 54.9073 52.2144 54.9344 52.1482L54.99 52.012C54.9953 51.9477 55.0073 51.8842 55.0254 51.822L55.0284 51.803L55.0299 51.8042C55.1284 51.4835 55.3849 51.2059 55.7143 51.1149ZM69.0777 51.1644C69.3642 50.8769 69.7666 50.9194 70.0652 51.1457L70.105 51.1769C70.3871 51.3025 70.6202 51.5768 70.7729 51.8312C70.9323 52.0953 71.0376 52.3643 71.0421 52.655C71.7355 52.6573 72.3996 52.866 72.9087 53.4276C73.0734 53.6089 73.1855 53.8885 73.0952 54.1342L73.0411 54.2804C72.8704 54.7446 72.1018 55.0118 71.84 54.4659L71.828 54.4393C71.5505 53.7912 70.4856 53.8592 69.9193 53.9254C69.5244 53.9718 69.1341 54.0703 68.7536 54.1805C68.6189 54.2193 68.4858 54.2615 68.3527 54.3046L68.2196 54.3478C68.1489 54.3708 67.7796 54.5721 68.0098 54.5245C68.0714 54.5116 68.1173 54.6018 68.0549 54.6321C67.7804 54.7635 67.4886 54.502 67.5066 54.2068C67.5382 53.6944 68.3497 53.4135 68.74 53.2368L68.7633 53.2262C68.913 53.1567 69.0694 53.0903 69.2311 53.0285C69.1401 52.8928 69.0649 52.7419 69.0025 52.58C68.9431 52.4271 68.904 52.2786 68.8822 52.116C68.8611 52.0365 68.8611 51.9571 68.8822 51.8776L68.8859 51.8548C68.8747 51.8022 68.8694 51.7479 68.8701 51.6932L68.8679 51.672H68.8701C68.8777 51.4805 68.9536 51.2887 69.0777 51.1644ZM64.4999 56.6207C65.6009 56.9618 67.4164 57.8911 66.8426 59.3256C66.0424 60.643 63.9185 59.6748 62.889 59.2492C61.9647 58.942 61.4834 60.2419 62.3768 60.6338C69.7651 63.5659 69.738 55.8274 64.7684 55.941C64.2209 55.9535 64.2036 56.5073 64.4999 56.6207ZM54.7253 46.5305L54.9133 46.4755C55.8887 46.192 56.8845 45.7025 57.7509 46.4663C58.0908 46.7662 58.1607 47.3895 57.9178 47.7636C57.3628 48.6161 56.5408 48.4858 55.6458 48.5585C54.9637 48.6138 54.2921 48.8147 53.6559 49.0657C53.1362 49.271 52.6541 49.56 52.1984 49.8823C51.7511 50.1993 51.4455 50.6946 50.9866 50.9799C50.8185 51.0844 50.6242 50.9768 50.5638 50.8073C50.3498 50.2057 50.7115 49.4564 51.0175 48.9439C51.391 48.3186 51.9584 47.8072 52.5684 47.4203C53.237 46.9966 53.9755 46.7519 54.7253 46.5305ZM68.9401 45.8833C70.5886 45.8828 72.1755 46.8028 73.0975 48.1515C73.4111 48.6098 73.1817 49.2886 72.732 49.5524C72.2274 49.8486 71.6874 49.6354 71.355 49.211L71.3354 49.1852C70.806 48.4786 70.1246 47.9222 69.3161 47.5598C68.922 47.383 68.4858 47.2395 68.0594 47.1668L67.9218 47.1431C67.7285 47.1106 67.5044 47.0795 67.3292 47.1099C67.2359 47.1223 67.1494 47.1533 67.0704 47.2005C67.1088 47.284 67.0103 47.3846 66.9193 47.3346C66.5094 47.1088 66.5598 46.7061 66.8982 46.3931C67.3773 45.9502 68.3219 45.8834 68.9401 45.8833Z" fill="black"/>
<path fill-rule="evenodd" clip-rule="evenodd" d="M65.276 61.5122C63.8824 60.8825 61.3795 61.432 60.471 61.6505C58.3592 62.1586 56.2346 63.2566 55.5781 64.9769C54.838 66.9157 56.3144 67.526 56.5317 67.4264C57.9937 67.5297 59.7347 66.6076 61.2667 66.3697C62.5106 66.1748 63.823 66.0048 64.9879 65.3417C65.8393 65.8113 67.7608 66.0651 69.3115 66.4756C70.6322 66.8251 71.2045 67.583 72.4288 67.4219C73.8969 67.2288 73.296 64.1322 71.6602 62.8778C69.8703 61.5049 66.8425 60.9481 65.276 61.5122ZM68.0345 74.7528C66.8154 75.0506 66.7335 72.3702 66.5973 71.4226C66.4905 70.6834 65.8889 68.7746 64.363 68.8573C62.837 68.9393 62.2639 70.5382 62.3406 71.5324C62.391 72.177 62.9837 75.4432 61.093 75.8568C59.8874 75.8523 58.4931 75.7711 57.2259 75.5364C55.7345 75.1973 53.7942 74.0105 53.282 76.3479C53.0978 77.1887 59.6686 79.6871 62.5843 79.9135C65.5414 80.5144 69.0009 79.5901 71.1067 77.3211C71.585 76.8044 72.9342 74.6618 73.0305 74.1368C73.2328 73.0336 72.765 72.3236 71.4045 72.7124C70.4434 73.2276 68.8189 74.561 68.0345 74.7528Z" fill="black"/>
<path fill-rule="evenodd" clip-rule="evenodd" d="M76.3524 57.38C74.831 58.957 72.2912 59.4095 70.2667 58.5638C65.0699 56.3854 67.6134 49.5909 71.6219 47.7662C72.1228 47.641 72.7914 47.344 73.4013 47.2766C73.4562 47.2495 73.5765 47.328 73.7217 47.2538C78.1416 47.7488 79.1478 54.6315 76.3524 57.38ZM59.5881 57.7835C57.8817 60.0539 54.7095 60.7544 52.1178 59.6989C46.9976 57.676 48.8136 51.6509 52.3171 49.2889C59.7167 46.4994 62.7731 53.5973 59.5881 57.7835ZM48.4886 52.7529C48.4839 52.7507 48.4791 52.7496 48.4742 52.7473C48.5012 52.7353 48.5283 52.7234 48.5552 52.7112C48.5465 52.7342 48.537 52.757 48.5285 52.7799C48.5152 52.7708 48.5035 52.7601 48.4886 52.7529ZM79.8743 50.2988C79.4569 50.2996 78.853 50.3685 78.5078 50.6593C77.655 47.7739 74.5068 45.1035 71.7693 47.0507C69.6131 47.7463 68.0135 49.2889 67.1042 51.3397C65.4647 50.3614 62.8867 50.7791 61.4653 52.0728C60.5342 48.9865 58.2427 47.9058 55.5157 47.7463C52.539 47.2572 49.5717 50.1573 48.646 52.4839C47.8762 52.3961 46.7261 52.1503 46.0019 52.6269C41.302 51.3904 33.085 50.7087 32.1295 51.3957C31.4486 51.6578 31.075 53.2701 32.026 53.3572C32.8548 53.2391 31.9293 52.1757 32.7647 52.0597C37.216 51.7829 41.5372 52.6822 45.9414 53.0596C46.3345 53.5902 47.6051 53.7677 48.2828 53.5545C47.2154 57.5012 49.5198 60.1864 52.9729 60.9906C58.3194 62.2226 62.9709 57.4246 61.5728 52.4341C63.192 51.6257 65.0549 51.6604 66.8192 52.0862C63.8711 62.9713 81.3461 62.4829 78.6169 51.0323C80.4331 51.9386 80.8272 50.4817 79.8743 50.2988Z" fill="black"/>
</svg>
