<svg width="139" height="153" viewBox="0 0 139 153" fill="none" xmlns="http://www.w3.org/2000/svg">
<path fill-rule="evenodd" clip-rule="evenodd" d="M134.989 83.7157C133.017 83.9086 131.044 84.1015 129.071 84.2944C119.623 85.0128 110.178 86.5145 100.803 87.4157C100.569 87.0371 100.112 87.0997 99.8346 87.3624C98.8988 87.2811 97.8507 86.5684 97.0034 87.3092C96.9753 87.3056 96.948 87.3012 96.9199 87.2984C95.4111 84.4139 94.368 81.338 93.3559 78.2578C92.7095 76.3638 91.8406 74.5304 90.2339 73.2591C87.4927 71.3637 81.2106 67.5205 77.9914 67.6817C77.9381 67.108 77.6696 66.5163 77.2284 66.134C78.2009 64.4834 74.313 63.4065 74.0387 63.5973C74.2143 58.0818 71.6092 53.2926 65.8648 52.1941C60.7186 51.1259 53.3984 50.9466 50.6306 56.3023C50.3261 56.2685 47.2163 56.2526 46.9154 56.2857C46.4475 55.6955 41.31 61.2873 43.4155 63.2345C24.5885 71.5279 13.8837 70.5381 8.67271 93.8548C7.96826 96.0453 7.91694 98.4417 7.17304 100.583C4.52651 106.738 2.37992 113.291 1.84564 119.988C0.555383 120.316 0.406949 122.582 1.9015 122.91C2.47242 123.035 2.94982 123.207 3.36604 123.531C3.04067 129.019 4.3734 141.554 5.21311 141.516C6.92534 146.942 14.5628 148.474 19.97 146.567C19.0378 148.314 19.97 149.411 19.97 150.344C39.4261 151.078 60.6991 150.655 80.1495 151.661C82.638 151.626 85.2547 152.269 87.7087 151.899C89.2052 151.541 89.2081 149.198 87.69 148.908L94.3234 147.474C94.1751 147.417 97.0574 145.508 99.2356 141.94C101.263 137.949 99.8835 133.131 100.803 128.79C107.979 128.205 115.274 127.956 122.372 126.745C123.34 129.628 127.529 126.18 128.86 124.793C128.859 124.79 128.858 124.788 128.855 124.786C129.5 124.61 130.017 124.009 130.034 123.297C130.486 122.654 130.581 121.748 130.147 121.126C132.134 109.711 135.163 98.0558 136.257 86.5332C136.644 86.4482 137.008 86.2791 137.317 86.0192L137.292 85.994C137.816 85.4131 137.918 84.4096 137.045 83.9158C136.341 83.517 135.753 83.6408 134.989 83.7157Z" fill="#EDB98A"/>
<path fill-rule="evenodd" clip-rule="evenodd" d="M59.9598 126.44L61.4794 127.403L73.9134 131.393L81.5114 132.355L87.7288 131.393V141.986L88.972 151.893C88.4199 152.901 83.1693 152.901 73.2224 151.893C66.8812 151.249 43.7063 150.937 38.4298 150.8L38.1311 150.792C31.9303 150.614 25.8058 150.614 19.7562 150.792V147.077L37.0254 138.547L52.4993 129.879L59.9598 126.44ZM51.1489 55.437L52.2913 56.2857L49.7977 60.3651L61.9437 70.1486V77.9633L65.7885 81.5856L67.9869 77.9633L71.0837 73.8623L73.2843 67.2131L72.5349 62.8335L74.0423 62.6917C74.0495 62.9911 74.048 63.2935 74.0387 63.5972C74.3129 63.4065 78.2009 64.4834 77.2283 66.134C77.6696 66.5162 77.9381 67.108 77.9914 67.6817C81.2105 67.5204 87.4927 71.3637 90.2339 73.2591C91.8406 74.5303 92.7102 76.3638 93.3559 78.2577L93.5078 78.7199L93.6654 79.1935L93.8231 79.6679C94.6977 82.2731 95.6414 84.8544 96.9206 87.2983C96.9479 87.3012 96.9753 87.3055 97.0034 87.3091C97.8506 86.5684 98.8995 87.2803 99.8345 87.3624C100.106 87.1054 100.548 87.0399 100.785 87.3898L100.803 87.4157L89.1462 89.7019L81.456 116.565L74.7593 111.151L71.165 111.683L61.6724 115.093L50.632 117.949L25.4286 124.869H22.2188L3.54216 120.378L1.85901 119.824C2.41481 113.184 4.54801 106.688 7.17309 100.583C7.91691 98.4416 7.96824 96.0452 8.67276 93.8547C13.8837 70.538 24.5885 71.5278 43.4155 63.2344C41.3099 61.2872 46.4475 55.6954 46.9154 56.2857L46.9449 56.2836L47.009 56.28L47.0911 56.2771C47.8253 56.2555 50.3577 56.272 50.6306 56.3023C50.7889 55.9963 50.9624 55.7077 51.1489 55.437Z" fill="#FF734F"/>
<path fill-rule="evenodd" clip-rule="evenodd" d="M136.852 84.5312L136.505 86.4583C136.422 86.4849 136.339 86.508 136.253 86.5267C136.145 87.6756 136.016 88.8252 135.872 89.9762L133.719 101.924C133.348 104.038 132.995 106.156 132.645 108.275L132.182 110.551L131.895 111.965C131.275 115.029 130.672 118.083 130.144 121.119C130.224 121.234 130.286 121.357 130.331 121.488L130.29 121.659L130.262 121.773L130.233 121.886C129.816 123.482 129.091 125.029 127.381 125.499C126.091 125.854 124.677 125.885 123.345 126.025L123.197 126.041L99.8957 128.651C97.0804 128.966 94.2665 129.291 91.4526 129.619L89.013 129.904C85.6131 130.296 82.1931 130.605 78.8437 131.314C78.7206 131.34 78.6184 131.389 78.5349 131.454C79.2101 128.911 79.8558 126.371 80.441 123.803C81.0997 120.911 81.7245 118.014 82.4293 115.134C83.8488 109.331 85.4397 103.566 87.1817 97.8499C87.5474 96.6507 87.921 95.4528 88.3032 94.2586L88.5717 93.4236L88.7776 92.7584C89.0972 91.7442 89.4924 90.7011 90.4289 90.1418C91.5253 89.4867 93.0197 89.378 94.2629 89.152L95.1051 88.9943C96.3641 88.7604 97.6253 88.5351 98.8879 88.3191C104.933 87.2832 111.012 86.4525 117.115 85.8291C123.464 85.1798 129.835 84.7573 136.214 84.5514L136.852 84.5312ZM79.0179 124.368L79.0776 124.373L78.2073 131.302C78.0677 131.205 77.8913 131.145 77.6754 131.146C74.8204 131.155 72.0836 130.245 69.4367 129.247L69.0335 129.094L67.9099 128.663C66.7675 128.228 65.6193 127.801 64.4488 127.448L63.9759 127.306L63.7354 127.235C62.85 126.977 61.9185 126.743 60.9971 126.685L60.8712 126.679L61.1397 126.538C61.1785 126.517 61.2131 126.494 61.244 126.47C61.7508 126.507 62.259 126.497 62.7939 126.401C63.8002 126.221 64.7785 125.872 65.6769 125.387L66.0778 125.17L66.242 125.083L66.3507 125.028L66.4586 124.973C67.2303 124.59 67.9674 124.351 68.9421 124.554C70.0478 124.786 71.0167 125.38 72.0137 125.881L72.1901 125.969L72.3096 126.026L72.4305 126.083L72.5536 126.139C73.9012 126.743 76.0463 127.395 76.5639 125.57C76.7712 124.836 76.6085 124.15 76.2486 123.548C76.9195 123.49 78.1195 124.278 79.0179 124.368Z" fill="white"/>
<path fill-rule="evenodd" clip-rule="evenodd" d="M50.9891 55.0586C51.5758 53.5916 53.5568 54.1624 53.3365 55.7036C53.2041 56.6265 52.6966 57.6019 52.2402 58.411C51.8687 59.0696 51.4455 59.7125 50.871 60.2056C51.8932 61.1558 52.9543 62.0707 54.0427 62.9396C55.2297 63.8876 56.4787 64.7622 57.7686 65.5649C58.9002 66.2696 60.083 66.8937 61.1498 67.6971C62.1417 68.4443 63.0451 69.3433 63.5051 70.5167C63.9946 71.7656 63.7823 73.0556 63.4216 74.3046L63.3799 74.4457C63.0113 75.6824 62.3735 77.1732 63.2582 78.3386C63.7081 78.9318 64.3632 79.3522 64.9283 79.8265C65.4307 80.2484 65.9022 80.7062 66.3341 81.1986C67.2771 82.2726 68.0445 83.4805 68.5283 84.8259L68.5714 84.9483C68.9861 86.1396 69.2891 87.5995 68.7291 88.7692C68.5678 89.104 68.0496 88.9953 67.9596 88.6685C67.7559 87.9292 67.7666 87.1546 67.5953 86.4045C67.4182 85.6242 67.1224 84.8835 66.7358 84.1831C65.9893 82.8276 64.9772 81.6701 63.7816 80.6918L63.4238 80.4017C62.4916 79.6394 61.6342 78.831 61.4449 77.5698C61.2426 76.2201 61.7854 74.9344 62.1345 73.6574C62.3778 72.767 62.4577 71.9139 62.1943 71.1092C61.8732 71.631 61.4348 72.127 61.0886 72.569C60.3983 73.4494 59.7014 74.3247 59.0061 75.2022C58.2934 76.1013 57.5988 77.0148 56.9365 77.9513C56.6406 78.371 56.3476 78.7928 56.0561 79.2147C55.8366 79.5321 55.5299 79.8489 55.2909 80.1728C55.3492 80.3456 55.3442 80.545 55.2391 80.6868C53.97 82.3943 52.1646 78.8317 51.6938 77.9319C50.735 76.0984 50.0216 74.1512 49.0599 72.3185C48.0629 70.4188 46.9277 68.5695 45.6629 66.8354C44.8977 65.7858 44.0396 64.8011 43.3399 63.7184C41.6908 65.2078 39.5204 66.2062 37.5272 67.1111C35.3374 68.1059 33.0619 68.9179 30.816 69.781L30.153 70.0373C26.2838 71.5411 22.3203 73.1931 19.1047 75.8645C15.3256 79.003 13.0899 83.3776 11.4256 87.9076C9.50962 93.1229 7.92458 98.4786 6.44701 103.831C5.69088 106.57 4.9734 109.321 4.29898 112.08C3.7046 114.512 3.21193 116.967 2.52397 119.374C3.91933 119.325 5.5107 119.862 6.70206 120.018C12.1314 120.726 17.4879 121.854 22.614 123.807C23.2467 124.048 23.4303 124.678 23.2921 125.189C23.6571 125.086 24.022 124.982 24.387 124.88C23.9875 124.269 24.1782 123.178 24.2099 122.501L24.2114 122.455C24.2437 121.553 24.3424 120.651 24.4057 119.751C24.5274 118.036 24.685 116.332 24.8952 114.627L24.9485 114.2C25.1867 112.344 25.3624 110.478 25.6215 108.626L25.6525 108.413C25.528 107.94 25.3833 107.471 25.2314 107.005C24.8254 105.763 24.2538 104.594 23.7521 103.392C23.6931 103.25 23.8953 103.169 23.9904 103.254C24.8391 104.014 25.5136 104.98 26.0556 105.989C26.065 105.941 26.0736 105.894 26.083 105.846L26.1449 105.543C26.2975 104.804 26.4832 104.026 26.9381 103.427C26.9864 103.363 27.0828 103.35 27.1282 103.427C27.5644 104.161 27.6126 105.091 27.6803 105.926C27.7559 106.871 27.7653 107.829 27.7523 108.777C27.7257 110.629 27.5947 112.486 27.4903 114.335C27.3881 116.153 27.1865 117.947 26.9273 119.747L26.8777 120.084C26.751 120.94 26.6473 121.808 26.4803 122.658L26.4328 122.889C26.3435 123.311 26.2888 123.907 26.111 124.4C30.6886 123.128 35.274 121.886 39.8681 120.665C43.1881 119.783 46.5123 118.914 49.8344 118.039C50.0101 117.724 50.2282 117.43 50.5003 117.167C51.398 116.302 52.5879 115.916 53.6784 116.582C53.7677 116.636 53.7749 116.775 53.6784 116.827C53.4697 116.941 53.2602 117.058 53.0543 117.18L55.0498 116.641C56.5406 116.239 58.0494 115.736 59.5755 115.456C62.3865 114.074 65.4099 113.074 68.3713 112.086L68.7205 111.968C70.2365 111.453 71.805 110.877 73.3714 110.592C74.5181 110.383 75.8643 110.635 76.3257 111.805C76.9095 112.188 77.4587 112.638 77.9885 113.081C78.3722 113.401 78.7393 113.742 79.1129 114.073L79.182 114.133C79.4873 114.397 79.7291 114.574 79.804 114.993C79.8429 115.211 79.7047 115.504 79.4354 115.475C78.6134 115.388 77.9446 114.438 77.3875 113.872C76.9563 113.434 76.5222 112.981 76.1292 112.499C75.9002 112.624 75.5857 112.601 75.4403 112.326C74.6837 110.9 72.6112 111.888 71.4645 112.226L69.8218 112.711C69.0005 112.953 68.1791 113.197 67.3599 113.444C65.1075 114.126 62.8659 114.888 60.5926 115.514C60.7963 115.736 60.7683 116.132 60.3817 116.283C58.6029 116.978 56.6507 117.338 54.8029 117.815C53.6353 118.116 52.4691 118.419 51.3037 118.724C51.1035 119.047 50.9596 119.412 50.8991 119.837C50.6767 121.398 51.1057 123.2 51.5239 124.711L51.5866 124.936C51.9299 126.15 52.436 127.638 53.4877 128.406C53.7447 128.592 54.0715 128.722 54.4012 128.752C56.4607 127.697 58.5202 126.641 60.5811 125.587C60.9626 125.392 61.3153 125.657 61.401 125.97C62.1273 125.852 62.8522 125.664 63.5123 125.441C64.6216 125.066 65.4883 124.351 66.5285 123.855C68.5405 122.899 70.5957 124.074 72.3974 124.968L72.8128 125.171C73.6205 125.562 75.3013 126.312 75.6893 125.244C76.0644 124.211 74.8788 123.108 74.1128 122.643C73.2001 122.088 72.1376 121.792 71.106 121.545C70.5172 121.403 69.9212 121.288 69.3215 121.204C68.6413 121.109 67.9387 121.123 67.2836 120.903C66.9583 120.794 66.9079 120.279 67.2836 120.194C68.2921 119.966 69.495 120.215 70.5474 120.47L71.0974 120.605C72.157 120.864 73.2274 121.189 74.1935 121.706C74.8953 122.082 75.6361 122.653 76.1205 123.352C76.5409 122.963 77.0642 122.976 77.6092 123.12L77.905 123.202C78.3938 123.336 78.7897 123.429 79.2648 123.336C79.3282 122.992 79.393 122.648 79.4613 122.303C80.1387 118.917 80.8816 115.543 81.7015 112.187C83.1153 106.399 84.7515 100.675 86.5958 95.0096L86.7808 94.4431C87.2062 93.1474 87.5489 91.735 88.2349 90.5444C88.8835 89.4193 89.9222 88.7707 91.1568 88.4273C92.5583 88.0372 94.0304 87.8334 95.46 87.5707C95.7789 87.5117 96.0985 87.4562 96.4174 87.3987C96.1482 86.9135 95.9466 86.3628 95.7652 85.9402L95.7336 85.8675C95.3441 84.9828 94.9943 84.0823 94.656 83.1775L94.4033 82.4965C93.7929 80.8581 93.163 79.2463 92.3056 77.7138C91.4022 76.1006 90.2044 74.7818 88.7114 73.6905C85.6665 71.4648 81.9967 70.3295 79.0438 67.9512C78.9229 67.854 79.0777 67.687 79.2008 67.7489C81.1947 68.7466 83.3471 69.4247 85.421 70.2374L85.8306 70.3979C87.4697 71.0451 89.134 71.7498 90.5535 72.7972C92.135 73.9655 93.3811 75.4167 94.3176 77.1422C95.2405 78.8432 95.8307 80.7465 96.4815 82.5634L96.6557 83.0472C96.9184 83.7735 97.1898 84.4969 97.5008 85.2031C97.747 85.7639 98.2077 86.4045 98.4172 87.0445C98.9894 86.9459 99.5625 86.8465 100.135 86.7515C112.551 84.687 125.106 83.474 137.688 83.1191C138.18 83.1055 138.434 83.5734 138.362 84.001C137.155 91.1109 136.081 98.2461 134.904 105.362C134.39 108.468 133.866 111.571 133.33 114.673C133.058 116.245 132.744 117.809 132.486 119.384C132.278 120.654 132.128 121.936 131.771 123.177C131.451 124.29 130.96 125.364 130.153 126.213C129.284 127.129 128.071 127.571 126.85 127.781C123.749 128.312 120.569 128.529 117.444 128.884L100.803 130.769C101.047 132.97 101.065 135.137 100.953 137.364L100.89 138.579C100.837 139.557 100.775 140.536 100.634 141.504C100.457 142.718 99.9001 143.746 99.0787 144.652C98.3243 145.485 97.4079 146.195 96.5168 146.876C95.5918 147.583 94.6358 148.266 93.5481 148.703L93.407 148.758C92.4532 149.129 90.6629 149.704 89.3586 149.494C89.5292 150.345 89.8589 151.259 89.5666 152.101C89.4306 152.492 88.9173 152.687 88.6035 152.354C87.9801 151.695 87.9318 150.825 87.7843 149.964C87.6302 149.07 87.4985 148.171 87.3804 147.272C87.1529 145.531 86.9759 143.774 86.9219 142.019C86.8665 140.216 86.8881 138.412 86.986 136.611C87.0356 135.686 87.0982 134.762 87.2156 133.843C87.266 133.451 87.3178 133.059 87.3761 132.668C87.3977 132.525 87.4215 132.384 87.4467 132.242L85.9537 132.41C83.6631 132.664 81.3718 132.895 79.0654 132.93C78.7926 132.934 78.5824 132.81 78.4449 132.63C78.2988 132.867 78.044 133.037 77.679 133.036C74.4584 133.024 71.4588 131.975 68.5297 130.739C67.0526 130.116 65.5992 129.441 64.1206 128.823C62.7399 128.247 61.2642 127.835 59.9174 127.186L56.3779 129.034C56.352 129.125 56.3189 129.211 56.2829 129.283C56.0525 129.752 55.5983 130.006 55.134 130.197C54.6891 130.381 54.2277 130.439 53.7778 130.392C51.0935 131.793 48.4084 133.192 45.7219 134.588L43.0347 135.984C37.6798 138.76 32.3471 141.582 26.959 144.293L26.5624 144.491C24.7008 145.421 22.7025 146.363 20.6373 147.066C20.6006 147.587 20.6236 148.093 20.6675 148.644L20.6783 148.764C20.7395 149.415 20.872 150.231 20.3472 150.694C20.0744 150.936 19.587 150.936 19.4013 150.573C19.0644 149.914 19.3668 148.875 19.474 148.158C19.5114 147.904 19.5575 147.642 19.6259 147.388C17.2583 148.09 14.8188 148.43 12.4094 148.037C10.0635 147.653 8.24664 146.181 6.78189 144.381C5.23608 142.482 4.13759 140.267 3.54824 137.894C2.87749 135.194 2.83372 132.405 2.84941 129.639C2.86618 126.693 2.9756 123.733 3.33531 120.808C2.94119 120.716 2.50403 120.636 2.10574 120.663C1.90842 120.978 1.52575 121.11 1.17993 121.069C0.427977 121.895 2.33537 122.739 2.94487 122.95C3.15658 123.023 3.1339 123.366 2.8898 123.356L2.73604 123.348C1.79419 123.298 0.821088 123.139 0.267307 122.267C-0.176481 121.568 -0.0430897 120.74 0.485857 120.171C0.835272 116.881 1.67059 113.677 2.44795 110.468C3.21085 107.318 4.05927 104.188 4.9585 101.074L5.36169 99.68C6.7775 94.7973 8.25744 89.8757 10.2105 85.1866C11.1857 82.8456 12.3092 80.5478 13.8321 78.5063C15.2517 76.6038 16.9279 74.9755 18.8542 73.5847C22.4456 70.9918 26.6596 69.4247 30.8001 67.9324L30.9851 67.8655C33.131 67.0924 35.2719 66.3106 37.3925 65.4727C39.2685 64.732 41.0659 63.7933 42.9332 63.0418C42.8728 62.9316 42.8137 62.8208 42.7576 62.7085L42.723 62.738C42.7173 62.7423 42.7108 62.7466 42.705 62.751C42.5172 62.8805 42.2407 62.8172 42.086 62.6718C41.649 62.2615 41.7966 61.8051 42.0888 61.3796L42.1263 61.3257C42.4833 60.8275 42.8015 60.302 43.1305 59.7859L43.3371 59.4634C43.8892 58.6017 44.4701 57.735 45.2072 57.0231C45.5484 56.6927 45.9221 56.4458 46.3173 56.2622C46.2834 56.191 46.5807 56.0448 46.6649 56.1183C47.9189 55.6611 49.3615 55.7569 50.7285 55.8829M99.998 130.86L98.2545 131.057C96.3368 131.274 94.4177 131.484 92.4986 131.693L88.3299 132.144C88.3191 132.381 88.2903 132.612 88.2853 132.791C88.2579 133.712 88.2378 134.634 88.2183 135.555C88.1802 137.403 88.2219 139.252 88.3443 141.096C88.4631 142.883 88.6186 144.67 88.8612 146.444L88.9108 146.799L88.9389 146.986C89.1369 147.004 89.3312 147.098 89.4925 147.29C89.8452 147.71 91.1222 147.302 91.6203 147.125C92.4403 146.835 93.2127 146.344 93.9253 145.852C94.6207 145.371 95.2477 144.81 95.8495 144.22L96.3418 143.735C96.8321 143.25 97.323 142.734 97.6232 142.124C98.0299 141.297 98.0824 140.281 98.2019 139.38C98.3488 138.272 98.5237 137.164 98.7087 136.061M49.3845 119.228L49.2031 119.275C42.6338 121.014 36.0745 122.804 29.485 124.465C26.2241 125.287 22.9473 126.05 19.682 126.857L19.1537 126.988C16.5781 127.637 13.9711 128.417 11.9986 130.277C11.9259 130.346 11.8201 130.241 11.8887 130.168C14.0144 127.915 17.038 126.96 19.9405 126.133C20.4775 125.98 21.0145 125.831 21.5515 125.68C17.6038 124.277 13.5933 123.059 9.49047 122.188C8.43394 121.964 7.36518 121.8 6.30952 121.576C5.57333 121.419 4.85434 121.192 4.12592 121.003L3.55292 120.86L3.54529 122.663C3.53579 125.217 3.54032 127.77 3.67119 130.324L3.69596 130.797C3.84864 133.639 4.08691 136.54 5.09974 139.22C5.92268 141.398 7.23446 143.449 8.94993 145.036C9.818 145.838 10.7512 146.462 11.9049 146.771C12.976 147.058 14.0982 147.091 15.1993 147.015C20.4811 146.647 25.1824 143.79 29.77 141.425C37.2745 137.556 44.7796 133.688 52.2913 129.834C52.0883 129.696 51.8968 129.537 51.7226 129.357C50.7155 128.321 50.1843 126.903 49.8352 125.53C49.4637 124.068 49.242 122.501 49.2161 120.991M58.942 131.328C59.0082 131.292 59.0852 131.336 59.0881 131.411C59.1119 131.983 58.7944 132.546 58.5576 133.06L58.5324 133.116C58.2452 133.753 57.9299 134.382 57.6038 135.001C56.9523 136.238 56.2757 137.462 55.5688 138.669C54.1478 141.096 52.5692 143.42 50.7033 145.534C50.2815 146.011 49.5883 145.399 49.8589 144.885C51.1633 142.408 52.6836 140.068 54.2486 137.749C55.0318 136.588 55.815 135.425 56.6061 134.269C56.9358 133.787 57.2705 133.306 57.6139 132.833L57.8212 132.55M136.856 84.5387C130.263 84.7366 123.679 85.165 117.117 85.8359C111.016 86.46 104.937 87.2907 98.8916 88.3258C97.6289 88.5418 96.3678 88.7671 95.108 89.001L94.3529 89.1428C93.0932 89.3804 91.5541 89.4783 90.4326 90.1485C89.2499 90.8554 88.9303 92.3318 88.5372 93.5491C88.0744 94.9816 87.6237 96.4177 87.1853 97.8574C85.4433 103.573 83.8524 109.338 82.4329 115.141C81.7281 118.022 81.1026 120.919 80.4439 123.809C79.8587 126.378 79.213 128.917 78.5385 131.461C78.622 131.397 78.7235 131.348 78.8466 131.321C82.1968 130.611 85.6168 130.303 89.0166 129.911L89.3456 129.873C92.8628 129.461 96.38 129.052 99.8993 128.658L123.201 126.048C124.575 125.894 126.047 125.873 127.385 125.506C129.658 124.882 130.191 122.35 130.572 120.334L130.584 120.273C131.734 114.182 132.65 108.037 133.722 101.931M79.0805 124.38C78.1764 124.321 76.9383 123.496 76.2515 123.555C76.6122 124.156 76.7749 124.843 76.5668 125.577C75.9888 127.617 73.3757 126.561 72.1167 125.938C71.0844 125.427 70.0882 124.801 68.945 124.562C67.6507 124.29 66.774 124.803 65.6798 125.394C64.7821 125.879 63.8039 126.227 62.7975 126.408C62.2627 126.504 61.7544 126.514 61.247 126.476C61.2167 126.502 61.1822 126.525 61.1433 126.545L60.8748 126.685C62.0877 126.741 63.3237 127.114 64.4525 127.455C65.6222 127.808 66.7711 128.234 67.9135 128.671L69.0372 129.1C71.8093 130.158 74.6787 131.162 77.679 131.153C77.895 131.153 78.0713 131.212 78.2102 131.309M74.0193 117.986C74.9133 117.877 75.7383 117.994 76.4524 118.573C77.3133 119.271 77.8921 120.43 79.1302 120.507C79.4916 120.528 79.5751 121.034 79.2166 121.14C78.2945 121.412 77.5487 120.915 76.9203 120.27L76.4984 119.831C75.8779 119.191 75.3056 118.696 74.2525 118.734C73.1252 118.776 71.9958 119.035 70.875 119.167C69.6059 119.317 68.3375 119.444 67.0641 119.554C67.0051 119.559 66.995 119.467 67.0504 119.453L68.4764 119.099M73.1569 114.347L73.3045 114.333C74.6016 114.207 75.7887 114.202 76.9476 114.898L77.1701 115.032C78.2153 115.664 79.3527 116.409 80.0063 117.433C80.1128 117.601 79.9364 117.798 79.7572 117.755C78.5018 117.455 77.5833 116.537 76.5272 115.851C75.3416 115.08 74.1172 115.207 72.766 115.327C71.4573 115.443 70.1494 115.602 68.8536 115.819C67.6356 116.024 66.414 116.345 65.1845 116.448V116.445C65.0442 116.445 64.9643 116.235 65.1075 116.164C66.3557 115.543 67.8012 115.249 69.1588 114.965M28.7176 79.2039C28.7155 79.1017 28.8601 79.0635 28.9105 79.152C29.7549 80.6313 30.1962 82.4446 30.6461 84.0744C31.1176 85.7819 31.4977 87.5066 31.8396 89.2444C32.5314 92.7623 32.8999 96.26 32.9251 99.8463C32.9287 100.358 32.0908 100.494 32.0088 99.9694C31.4653 96.4817 30.9441 92.9905 30.3963 89.5035C30.1199 87.7492 29.7996 86.0021 29.4922 84.2536M37.0765 81.7809C37.0146 81.5765 37.3126 81.5081 37.3889 81.6946C39.0835 85.8373 39.6579 90.5322 38.5695 94.9024C38.4032 95.5711 37.4199 95.281 37.5451 94.6209M58.9355 78.0996C58.9269 77.947 59.1263 77.9233 59.2011 78.0284C60.0038 79.1549 60.3371 80.6637 61.7458 81.2461C62.4491 81.5369 63.2409 81.4858 63.8622 81.9767C64.2775 82.3057 64.5964 82.824 64.284 83.3214C64.184 83.4819 63.9025 83.5626 63.7657 83.3876C63.5663 83.1335 63.4612 82.829 63.1906 82.6383C62.809 82.3691 62.2936 82.3525 61.856 82.2258C61.2901 82.0624 60.7913 81.7766 60.3824 81.3512M72.3499 59.3079C72.4327 59.2662 72.5126 59.2928 72.5652 59.3641C72.6408 59.4656 72.6314 59.5642 72.5393 59.634C72.6624 59.886 72.8085 60.5158 72.8294 60.608C72.9143 60.9801 73.0043 61.3494 73.0979 61.7194C73.2879 62.4645 73.4542 63.2153 73.6442 63.961C73.8458 64.7514 74.0855 65.5332 74.3526 66.3041C74.3698 66.3538 74.3886 66.4049 74.4087 66.4567L74.4389 66.5345L74.4469 66.523C74.5009 66.4373 74.6139 66.4971 74.6009 66.587C74.588 66.6698 74.5714 66.7512 74.557 66.834L74.5851 66.9074C74.76 67.3753 74.8795 67.8684 74.5592 68.2816C74.4389 68.4363 74.3072 68.5278 74.1431 68.5551C73.8789 69.4204 73.5485 70.2698 73.1943 71.0854L73.0907 71.3237C72.5695 72.5136 72.0145 73.6884 71.1852 74.7012C70.2796 75.8076 69.0343 76.5627 68.2453 77.775C67.8782 78.3386 67.6227 78.9318 67.4161 79.5681L67.3376 79.81C67.1908 80.2606 67.0209 80.6968 66.5969 80.961C66.4616 81.0452 66.2586 81.0186 66.1491 80.9034C65.2796 79.9871 66.1902 78.276 66.7149 77.3884C67.4442 76.1546 68.4995 75.3656 69.5562 74.4349C70.695 73.4314 71.4221 72.0889 72.1246 70.7665C72.5551 69.9567 72.9705 69.1288 73.4081 68.3154C72.951 67.913 72.8049 67.114 72.6501 66.5583L72.6357 66.5086C72.3795 65.6188 72.1765 64.7061 72.0476 63.789C71.9245 62.9079 71.8727 62.039 71.9051 61.1529L71.9144 60.9269M74.0495 63.5032C73.9487 63.365 74.1157 63.2088 74.2547 63.2376C75.0969 63.4111 75.9204 63.9193 76.677 64.3296L76.7576 64.3735C77.3615 64.6974 77.9684 65.0948 78.2858 65.7247C78.6299 66.4085 78.6018 67.1975 78.5551 67.9411L78.55 68.0102C78.4924 68.9028 78.4838 69.8293 78.2937 70.7053C78.1966 71.1531 77.7891 71.2798 77.4407 71.1739C77.0261 72.4776 75.8606 73.4386 75.0098 74.468C73.925 75.7795 74.1287 77.5511 74.2424 79.1312C74.2885 79.7711 73.4895 79.9532 73.0777 79.612L72.1289 78.8274C71.9713 78.6964 71.8137 78.5654 71.656 78.4336C71.5214 78.3206 71.3875 78.2069 71.255 78.0917L71.0578 77.9175C70.97 77.839 70.5827 77.4086 70.4697 77.3913C70.1954 77.3474 69.5447 78.0672 69.3215 78.2925L69.2934 78.3206C68.8738 78.7302 68.4951 79.1708 68.1424 79.6387C68.0769 79.7243 67.9502 79.6531 67.9963 79.5537C68.313 78.8792 68.6809 78.2342 69.1171 77.6303L69.2056 77.5101C69.4964 77.1199 69.8859 76.4317 70.3991 76.3166C71.0254 76.1762 71.6502 76.801 72.1059 77.148L72.1347 77.1703C72.3514 77.3323 72.5659 77.4971 72.7797 77.6627C72.7574 76.4864 72.9064 75.2972 73.5168 74.2837C73.9466 73.5689 74.5908 73.0391 75.1422 72.4243C75.7563 71.7405 76.0766 70.8997 76.6323 70.187C76.7043 70.0956 76.8029 70.0459 76.9095 70.0301C76.9311 69.4571 77.0153 68.879 77.0808 68.3125L77.1002 68.1426C77.1665 67.5272 77.3227 66.7749 77.0196 66.1983C76.7338 65.6534 76.078 65.269 75.5921 64.8997L75.1955 64.5931M46.7067 56.9929C46.4533 57.139 46.2158 57.3211 46.0012 57.5479C45.3239 58.2634 44.8394 59.1531 44.3686 60.0098C44.1152 60.4712 43.8705 60.9369 43.6149 61.3969C43.5034 61.5978 43.3889 61.7957 43.2737 61.993C43.2197 62.0844 43.0614 62.2651 42.9822 62.3766C43.07 62.499 43.1607 62.6192 43.2528 62.738C43.2881 62.7833 45.7169 65.4187 46.5634 66.4496C47.8599 68.0289 49.0189 69.6975 50.0094 71.4835C50.9797 73.2327 51.7183 75.0842 52.6167 76.8665C53.0666 77.7591 53.569 78.6453 54.209 79.4177C54.2342 79.4479 54.2601 79.4767 54.2853 79.5062C54.53 78.8483 55.1563 78.1442 55.4637 77.7404L55.4925 77.7023C56.19 76.7657 56.9264 75.8573 57.6794 74.9647C58.3668 74.1498 59.0716 73.3522 59.7936 72.5676L60.065 72.2739C60.5681 71.7325 61.2074 70.9234 61.9438 70.5369C61.8646 70.3965 61.7732 70.2583 61.6681 70.1215C60.9785 69.2231 60.0031 68.5717 59.0406 67.9836L58.4165 67.6056C56.064 66.1782 53.7483 64.6845 51.7061 62.8294C50.6256 61.8475 49.5602 60.8196 48.6517 59.675L48.3307 59.2698M50.632 56.286C49.5307 56.3781 48.3408 56.3565 47.3229 56.7136C48.2277 57.5659 49.088 58.4858 49.9719 59.3525C50.0504 58.7666 50.2109 58.1871 50.3477 57.6163" fill="black"/>
<path fill-rule="evenodd" clip-rule="evenodd" d="M82.7977 20.5187C82.9482 19.1256 81.3141 15.4092 81.3537 16.1631C78.7342 12.132 73.6218 10.5468 69.2106 9.21606C59.8467 6.13114 52.5345 9.8568 45.9558 16.4599C42.0715 20.0806 38.3757 24.1252 36.4257 29.1375C32.5896 38.6994 38.3397 49.6026 47.0831 54.17C47.7885 54.5516 48.558 54.9129 49.2296 55.3736C52.844 57.4576 57.0883 58.1782 61.1165 59.0852C68.6512 60.8042 78.1151 59.985 82.5552 52.8261C85.567 47.7446 84.7673 41.5856 84.5311 35.9466C84.177 31.0061 83.5557 25.4229 82.7977 20.5187Z" fill="#EDB98A"/>
<path fill-rule="evenodd" clip-rule="evenodd" d="M42.5214 6.41885C47.4034 1.86457 54.6185 -0.342854 61.2159 0.0432024C64.7886 0.252391 68.2323 1.1458 71.4616 2.68088C72.4715 3.16088 73.4556 3.72279 74.3626 4.38441C74.9744 4.66947 75.5734 4.978 76.1528 5.31338C79.0567 6.99192 81.3005 9.53437 82.7373 12.5502C83.4233 13.9896 83.964 15.5075 84.2706 17.0715L84.3203 17.3289C84.4765 18.1138 84.7853 19.1478 84.3944 19.8822C84.1353 20.3691 83.5918 20.676 83.0778 20.6348C83.1894 21.086 83.3233 21.5372 83.4089 21.9913L83.6414 23.2296C83.6803 23.436 83.7185 23.6424 83.7559 23.8487C83.9812 25.0787 84.1878 26.3072 84.3534 27.5468C84.6989 30.1281 85.012 32.7146 85.2878 35.3053C85.4857 37.1581 85.6707 39.0126 85.8507 40.8669L85.9579 41.9798C86.1429 43.8946 86.2876 45.8267 86.1617 47.7501C85.9731 50.6353 85.0833 53.2678 83.3578 55.4093C83.522 55.8038 83.5774 56.2479 83.7012 56.7389C83.8725 57.4177 84.0957 58.0828 84.3332 58.7422C84.4448 59.0014 84.5557 59.2605 84.6658 59.5204L84.9559 60.2078L85.1819 60.6592C85.4267 61.1501 85.6635 61.6483 85.814 62.1558C86.7894 62.6755 87.5855 63.5235 87.6244 64.6853C87.6589 65.7349 87.1133 66.8463 86.1912 67.3819C85.2806 67.9102 84.344 67.7022 83.4723 67.2984C82.7128 67.5194 81.8994 67.5467 81.1472 67.3113C80.5677 67.8347 79.8198 68.196 78.9919 68.2939C77.743 68.4415 76.5567 68.0931 75.4114 67.6338L75.3315 67.6021C75.2955 67.5878 75.2595 67.5726 75.225 67.5575C73.9069 67.4942 72.5946 66.9744 71.6595 66.0523C71.355 65.7543 71.0923 65.4131 70.8799 65.0301C70.109 63.6394 69.9888 61.9319 70.7475 60.5519C70.5848 60.5591 70.4207 60.5656 70.258 60.5699C68.0884 60.6318 65.9158 60.521 63.752 60.3792L63.2416 60.3446C61.8415 60.2438 59.7769 60.007 59.7374 58.275C59.7316 58.0533 59.9605 57.887 60.1707 57.9461C60.9661 58.1699 61.7479 58.5227 62.5721 58.6494C63.6497 58.8157 64.767 58.8336 65.8561 58.8941L66.1692 58.9114C68.3655 59.0316 70.6409 59.1043 72.8012 58.6695C74.4144 58.3463 76.0953 57.7575 77.5731 57.0283C78.9919 56.3271 80.2805 55.4093 81.3199 54.2108C83.6098 51.5747 83.9136 47.8559 83.802 44.5209C83.6667 40.5372 83.198 36.5601 82.9331 32.5826L82.8136 30.7957C82.715 29.3055 82.6243 27.8133 82.5869 26.3224C82.5595 25.2342 82.5775 24.1432 82.5826 23.0548C82.5854 22.5114 82.5789 21.9652 82.5912 21.4217C82.5984 21.1163 82.6337 20.8177 82.6603 20.5191C82.5386 20.4559 82.4256 20.3677 82.3241 20.2509C82.2435 20.1587 82.1816 20.061 82.1391 19.962C81.6252 19.8119 81.3862 19.6124 81.0529 19.1599C80.7714 18.7788 80.4532 18.4265 80.1127 18.0963C79.3871 17.3946 78.5586 16.8209 77.6832 16.3213C75.8728 15.2882 73.8903 14.5976 71.8913 14.0307C68.8305 13.1639 65.6517 12.7182 62.5455 12.0219C61.6896 13.2133 60.7826 14.3692 59.8338 15.4878C56.8738 18.9769 53.4797 22.0875 49.843 24.8614C49.103 25.4268 48.3522 25.984 47.5913 26.5246C46.5893 28.0499 45.5764 29.5679 44.5478 31.0757L44.1065 31.7213L44.0993 31.7336C44.0388 31.8258 43.9805 31.918 43.923 32.0102C43.8006 32.2056 43.6624 32.394 43.5162 32.577C43.4212 32.7159 43.3248 32.8548 43.2269 32.9939C43.4147 33.0942 43.5853 33.2072 43.7192 33.3324C43.9921 33.5896 43.9467 33.9983 43.7192 34.2597C42.9857 35.1045 41.8246 34.0038 40.9809 33.7107C40.0667 33.9885 39.3044 35.0742 38.9257 35.9037C38.3794 37.0994 38.1605 38.5412 38.4075 39.8361C38.6328 41.0188 39.2425 42.0417 40.256 42.6824C40.292 42.7047 40.3302 42.7277 40.3676 42.7486C40.3691 42.7515 40.3691 42.7515 40.3705 42.75C40.405 42.7716 40.4403 42.7925 40.4763 42.8119C40.9521 43.0732 41.4747 43.2273 42.0161 43.2647C42.3263 43.2863 42.6503 43.2698 42.9605 43.3072C43.2794 43.3439 43.5414 43.49 43.8474 43.567C44.185 43.6541 44.4031 44.1069 44.1907 44.4107C44.0856 44.5604 43.9863 44.7037 43.8805 44.8318C44.2289 45.2414 44.5327 45.6942 44.8069 46.1247C45.182 46.715 45.5138 47.3412 45.8176 47.9797C46.0969 48.3469 46.3647 48.7212 46.6238 49.1034C48.0923 51.2745 49.216 53.6932 49.9064 56.2206C50.5902 58.7206 51.0178 61.5288 50.3851 64.0814C49.802 66.4281 48.0988 68.3724 45.5786 68.4977C45.0531 68.5236 44.5356 68.4645 44.0489 68.3314C42.9807 68.99 41.6569 69.3212 40.472 69.36C39.5132 69.3917 38.4636 69.1901 37.6804 68.6114C36.7518 69.0145 35.7447 69.2434 34.8687 69.296C33.8882 69.3543 32.8617 69.0879 32.0627 68.5596C31.3025 69.2096 30.4819 69.7581 29.5497 70.1346C27.9459 70.781 26.0383 70.7011 24.5698 69.7344C23.0984 68.7654 22.3505 67.027 22.7996 65.3015C23.2128 63.7106 24.5129 62.5445 25.7345 61.5396L25.9764 61.3423C27.1843 60.3583 28.4044 59.4059 29.1797 58.0188C30.0032 56.5481 30.3034 54.8392 30.3847 53.1749C30.5611 49.5094 29.8139 45.8771 29.5864 42.231C29.3525 38.4656 29.4835 34.6888 29.9974 30.9507C30.9973 23.6891 33.6277 16.5705 38.3866 10.9101C39.0748 10.0912 39.8119 9.31049 40.5886 8.57056C41.1825 7.79571 41.8239 7.06938 42.5214 6.41885ZM105.825 47.8804C105.852 47.8818 105.876 47.8833 105.9 47.8926C105.916 47.8998 105.929 47.9099 105.941 47.9214L106.057 48.0373C106.099 48.0784 106.096 48.1417 106.057 48.1835C106.023 48.2209 105.962 48.2216 105.922 48.1928L105.911 48.1835L105.791 48.0632C105.778 48.0488 105.766 48.0337 105.76 48.0143C105.755 47.9949 105.755 47.9725 105.754 47.9524C105.752 47.9149 105.788 47.8804 105.825 47.8804ZM41.1422 36.6399C42.2479 36.3054 43.5745 37.1008 44.2332 37.94C44.5643 38.3611 44.6579 38.9375 44.2332 39.3516C43.8718 39.7036 43.1664 39.7684 42.8173 39.3516C42.4221 38.877 42.0989 38.2192 41.5338 37.9153C40.9205 37.5851 40.0984 37.6677 39.9537 38.4724C39.9292 38.6087 39.7334 38.5632 39.7248 38.4408C39.6715 37.6264 40.3871 36.8667 41.1422 36.6399Z" fill="black"/>
<path fill-rule="evenodd" clip-rule="evenodd" d="M70.6784 50.483C69.7498 50.1058 68.9212 49.476 68.3151 48.6726C68.1049 48.3926 68.0502 48.0974 68.0941 47.8275C68.1438 47.5244 68.3245 47.2495 68.57 47.0645C68.8169 46.8795 69.1257 46.788 69.4237 46.8348C69.6829 46.8751 69.9413 47.0162 70.145 47.3099L70.1882 47.3682C70.5481 47.8534 71.0175 48.2515 71.5523 48.5085C72.0677 48.7554 72.6443 48.8713 73.2404 48.8036C74.377 48.6762 75.1602 48.0643 75.9923 47.2329C76.0953 47.1285 76.1989 47.0198 76.3026 46.9104C76.3681 46.8104 76.4588 46.7463 76.5596 46.7132C76.6719 46.6757 76.7986 46.6779 76.9145 46.7182C77.0268 46.7571 77.1268 46.8305 77.1938 46.9291C77.2578 47.022 77.2938 47.1372 77.2823 47.2703C77.206 48.1313 76.754 48.9001 76.1118 49.5033C75.3985 50.1735 74.4533 50.6371 73.5629 50.7998C72.5824 50.979 71.5833 50.8509 70.6784 50.483ZM74.0257 37.198C75.0688 37.8295 76.6589 39.3023 75.536 40.868C74.215 42.2479 72.3132 40.665 71.376 39.9495C70.5071 39.3944 69.5303 40.8212 70.3365 41.4691C77.1096 46.4627 79.8579 37.3631 74.5534 36.4554C73.9696 36.3554 73.7522 37.0026 74.0257 37.198ZM61.8883 31.3891C62.0042 29.9642 64.1832 29.6406 64.3999 31.0506C64.5935 32.3136 64.3653 33.4738 63.7938 34.611C63.2481 35.6974 61.8761 35.1905 61.7724 34.2013C61.6335 32.8753 61.817 32.2754 61.8883 31.3891ZM78.4758 30.7583C78.7796 30.362 79.2187 30.0915 79.7442 30.2444C81.3862 30.7222 80.9017 33.0436 80.3251 34.1736C80.012 34.7873 78.9992 34.9428 78.5413 34.4026C77.7956 33.5215 77.4385 31.7619 78.3866 30.894C78.4125 30.8492 78.4413 30.8039 78.4758 30.7583ZM63.7707 25.1543L64.0306 25.1091C64.8325 24.9709 65.8302 24.8381 66.3982 25.4805C66.6991 25.8212 66.8027 26.4543 66.3982 26.7804C65.6862 27.3542 64.8994 27.1318 64.0464 27.1804C63.3431 27.2205 62.6679 27.3364 61.9905 27.5291C60.5055 27.9519 59.2947 28.7238 58.0263 29.5713C57.86 29.6824 57.6894 29.4704 57.7693 29.3154C58.5014 27.8868 59.921 26.7134 61.3427 25.9981C62.1014 25.6163 62.9314 25.2996 63.7707 25.1543ZM76.9793 24.5144L77.1779 24.5549C79.3382 25.0046 82.1449 25.9029 83.1678 28.0161C83.2067 28.3149 83.1657 28.3789 83.1325 28.4208L83.121 28.4347C83.0937 28.4704 83.0714 28.5197 82.9418 28.5604C82.9051 28.5518 82.8691 28.5428 82.8324 28.5331C82.363 28.4107 81.9923 28.2422 81.6331 28.0672L81.2437 27.8761C80.7916 27.6555 80.3359 27.4429 79.8529 27.2859C78.8221 26.951 77.7617 26.7151 76.6849 26.5892C76.4509 26.562 76.2263 26.4835 76.0492 26.349C75.8808 26.2214 75.7519 26.0447 75.6936 25.8099C75.618 25.5059 75.6396 25.2759 75.803 25.0017C75.9261 24.7957 76.1025 24.6531 76.3048 24.5711C76.5114 24.4875 76.746 24.4678 76.9793 24.5144Z" fill="black"/>
<path d="M113.147 112.281C113.253 112.175 113.412 112.251 113.512 112.091C113.543 112.037 113.558 111.974 113.553 111.912C113.553 111.751 113.553 111.596 113.553 111.438V109.771C113.553 109.429 113.58 109.076 113.553 108.734C113.552 108.695 113.542 108.657 113.525 108.623C113.507 108.588 113.482 108.557 113.453 108.533C113.372 108.461 112.362 108.767 112.28 108.731C112.198 108.696 112.184 108.577 112.214 108.504C112.243 108.43 112.308 108.423 112.368 108.397C112.486 108.349 113.543 108.032 113.661 107.983C113.863 107.903 114.071 107.771 114.291 107.771C114.394 107.771 114.451 107.802 114.435 107.911L114.379 108.282C114.965 107.401 116.364 107.532 116.901 108.394C117.447 109.27 117.174 110.664 116.175 111.074C115.591 111.315 114.896 111.215 114.445 110.759V111.623C114.445 111.733 114.437 111.847 114.445 111.956C114.448 112.014 114.468 112.068 114.502 112.115C114.536 112.161 114.583 112.196 114.637 112.216C114.705 112.24 114.802 112.202 114.843 112.274C114.884 112.348 114.881 112.577 114.811 112.622C114.76 112.656 114.65 112.635 114.59 112.635H113.54C113.453 112.635 113.285 112.669 113.203 112.635C113.098 112.59 113.147 112.368 113.147 112.281ZM114.458 108.934C114.352 109.406 114.378 109.993 114.638 110.416C114.699 110.511 114.779 110.591 114.873 110.655C114.967 110.718 115.072 110.762 115.183 110.784C115.295 110.805 115.408 110.805 115.519 110.782C115.63 110.759 115.735 110.714 115.828 110.65C116.241 110.353 116.296 109.717 116.265 109.255C116.233 108.791 116.072 108.242 115.57 108.112C115.447 108.078 115.316 108.073 115.19 108.096C115.063 108.119 114.943 108.17 114.839 108.245C114.625 108.408 114.515 108.677 114.458 108.934Z" fill="white"/>
<path d="M105.855 108.284C105.855 108.212 105.842 108.164 105.883 108.112C105.938 108.053 106 108 106.066 107.952L106.699 107.405C106.851 107.275 107.004 107.099 107.175 106.994C107.196 106.979 107.222 106.969 107.248 106.968C107.274 106.967 107.3 106.974 107.322 106.989C107.394 107.033 107.366 107.102 107.361 107.174L107.305 107.929H109.419C109.474 107.921 109.531 107.921 109.587 107.929C109.676 107.968 109.668 108.196 109.645 108.27C109.608 108.376 109.447 108.335 109.357 108.335H107.381C107.289 108.335 107.309 108.343 107.309 108.434V109.508C107.309 109.778 107.257 110.149 107.376 110.401C107.494 110.652 107.821 110.734 108.067 110.622C108.169 110.573 108.253 110.494 108.308 110.395C108.355 110.315 108.37 110.164 108.486 110.194C108.703 110.248 108.405 110.745 108.333 110.84C108.123 111.103 107.746 111.17 107.427 111.155C107.107 111.139 106.784 111.018 106.603 110.748C106.47 110.527 106.405 110.272 106.417 110.014C106.417 109.659 106.417 109.302 106.417 108.947C106.417 108.799 106.426 108.574 106.349 108.445C106.229 108.251 105.992 108.412 105.855 108.284Z" fill="white"/>
<path d="M108.877 109.394C108.873 109.138 108.918 108.884 109.008 108.644C109.082 108.439 109.2 108.252 109.353 108.097C109.506 107.941 109.691 107.82 109.894 107.742C110.099 107.662 110.317 107.621 110.537 107.623C110.735 107.616 110.932 107.65 111.117 107.721C111.302 107.793 111.47 107.902 111.612 108.04V107.147C111.608 107.076 111.578 107.009 111.528 106.96C111.478 106.909 111.411 106.879 111.34 106.875H111.27L111.204 106.808V106.602L112.306 106.181H112.508L112.574 106.25L112.508 106.873V110.39C112.513 110.461 112.543 110.527 112.594 110.577C112.644 110.627 112.71 110.657 112.781 110.662H112.862L112.918 110.718V111.016L112.862 111.069H111.665L111.612 111.016V110.718C111.344 111.016 110.983 111.165 110.528 111.165C110.306 111.171 110.086 111.13 109.881 111.044C109.678 110.958 109.494 110.829 109.344 110.667C109.032 110.335 108.877 109.911 108.877 109.394ZM109.824 108.884C109.755 109.221 109.755 109.568 109.824 109.904C109.857 110.054 109.911 110.2 109.984 110.336C110.053 110.463 110.154 110.57 110.277 110.645C110.41 110.719 110.559 110.758 110.71 110.758C110.861 110.758 111.01 110.719 111.143 110.645C111.265 110.57 111.366 110.465 111.436 110.341C111.51 110.205 111.564 110.058 111.596 109.907C111.667 109.571 111.667 109.223 111.596 108.887C111.564 108.736 111.51 108.59 111.436 108.454C111.366 108.327 111.264 108.221 111.14 108.146C111.008 108.072 110.859 108.033 110.708 108.033C110.556 108.033 110.407 108.072 110.275 108.146C110.151 108.221 110.05 108.328 109.982 108.455C109.91 108.59 109.857 108.735 109.824 108.884Z" fill="white"/>
</svg>
